<svg id="svg" version="1.1" xmlns="http://www.w3.org/2000/svg" xmlns:xlink="http://www.w3.org/1999/xlink" width="400" height="442.10526315789474" viewBox="0, 0, 400,442.10526315789474"><g id="svgg"><path id="path0" d="M193.200 0.557 C 193.200 0.911,192.930 1.200,192.600 1.200 C 192.270 1.200,192.000 1.041,192.000 0.847 C 192.000 0.179,186.825 2.393,184.435 4.084 C 183.904 4.459,183.319 4.674,183.135 4.560 C 182.951 4.446,182.800 4.543,182.800 4.776 C 182.800 5.009,182.530 5.200,182.200 5.200 C 181.870 5.200,181.600 5.365,181.600 5.567 C 181.600 5.769,180.802 6.239,179.826 6.611 C 178.850 6.984,177.948 7.558,177.822 7.886 C 177.691 8.228,177.329 8.382,176.976 8.246 C 176.623 8.111,176.463 8.178,176.603 8.405 C 176.737 8.622,176.477 8.800,176.024 8.800 C 175.571 8.800,175.200 8.980,175.200 9.200 C 175.200 9.420,174.849 9.600,174.420 9.600 C 173.991 9.600,173.496 9.828,173.320 10.106 C 173.144 10.384,172.100 11.056,171.000 11.600 C 169.900 12.144,168.890 12.742,168.755 12.929 C 168.621 13.116,168.394 13.249,168.251 13.226 C 167.941 13.176,165.486 14.407,165.200 14.756 C 164.733 15.326,161.696 16.763,161.459 16.526 C 161.317 16.383,161.200 16.477,161.200 16.733 C 161.200 16.990,160.964 17.200,160.675 17.200 C 160.387 17.200,159.801 17.515,159.373 17.900 C 158.291 18.874,155.372 20.425,155.059 20.192 C 154.917 20.087,154.885 20.115,154.989 20.256 C 155.196 20.535,153.254 21.753,151.500 22.444 C 150.894 22.684,150.518 23.067,150.662 23.301 C 150.806 23.533,150.752 23.618,150.543 23.489 C 150.334 23.359,149.198 23.781,148.018 24.427 C 146.838 25.072,145.620 25.600,145.312 25.600 C 145.005 25.600,144.845 25.750,144.958 25.932 C 145.071 26.115,144.542 26.509,143.782 26.807 C 143.022 27.105,142.400 27.506,142.400 27.698 C 142.400 27.890,142.220 27.936,142.000 27.800 C 141.780 27.664,141.600 27.743,141.600 27.976 C 141.600 28.209,141.352 28.400,141.049 28.400 C 140.746 28.400,140.276 28.668,140.004 28.996 C 139.732 29.323,139.350 29.493,139.155 29.372 C 138.960 29.251,138.800 29.329,138.800 29.545 C 138.800 29.760,138.260 30.055,137.600 30.200 C 136.940 30.345,136.400 30.608,136.400 30.785 C 136.400 30.962,135.413 31.589,134.208 32.179 C 133.002 32.769,131.911 33.420,131.784 33.626 C 131.657 33.832,131.203 34.000,130.776 34.000 C 130.349 34.000,130.000 34.180,130.000 34.400 C 130.000 34.620,129.745 34.800,129.433 34.800 C 129.122 34.800,128.807 34.935,128.733 35.100 C 128.660 35.265,127.566 35.940,126.301 36.600 C 125.037 37.260,124.002 37.915,124.001 38.055 C 124.001 38.196,123.370 38.429,122.600 38.574 C 121.830 38.718,121.200 39.008,121.200 39.218 C 121.200 39.428,120.919 39.600,120.576 39.600 C 120.233 39.600,120.064 39.780,120.200 40.000 C 120.336 40.220,120.077 40.400,119.624 40.400 C 119.171 40.400,118.800 40.559,118.800 40.753 C 118.800 41.045,117.918 41.476,116.771 41.746 C 116.646 41.776,116.228 42.115,115.843 42.500 C 115.458 42.885,114.785 43.200,114.348 43.200 C 113.911 43.200,113.664 43.380,113.800 43.600 C 113.936 43.820,113.767 44.000,113.424 44.000 C 113.081 44.000,112.800 44.174,112.800 44.387 C 112.800 44.601,112.530 44.671,112.200 44.545 C 111.870 44.418,111.600 44.514,111.600 44.757 C 111.600 45.001,111.229 45.200,110.776 45.200 C 110.323 45.200,110.064 45.380,110.200 45.600 C 110.336 45.820,110.154 46.000,109.795 46.000 C 109.436 46.000,108.871 46.272,108.539 46.604 C 108.207 46.936,107.770 47.105,107.568 46.980 C 107.365 46.855,107.200 46.940,107.200 47.169 C 107.200 47.398,106.711 47.707,106.113 47.857 C 105.516 48.007,104.718 48.416,104.340 48.765 C 103.963 49.114,102.967 49.754,102.127 50.187 C 101.287 50.620,99.973 51.385,99.207 51.887 C 98.441 52.389,97.574 52.800,97.279 52.800 C 96.985 52.800,95.959 53.340,95.000 54.000 C 94.041 54.660,93.063 55.200,92.828 55.200 C 92.593 55.200,92.400 55.391,92.400 55.624 C 92.400 55.857,92.220 55.936,92.000 55.800 C 91.780 55.664,91.600 55.710,91.600 55.902 C 91.600 56.094,90.970 56.498,90.200 56.800 C 89.430 57.102,88.800 57.496,88.800 57.675 C 88.800 57.854,88.545 58.000,88.232 58.000 C 87.594 58.000,85.310 59.152,84.517 59.872 C 84.232 60.132,83.143 60.762,82.099 61.272 C 81.055 61.783,79.960 62.427,79.668 62.704 C 79.375 62.981,78.942 63.088,78.706 62.942 C 78.468 62.795,78.391 62.862,78.534 63.093 C 78.770 63.475,74.917 65.600,73.989 65.600 C 73.775 65.600,73.600 65.780,73.600 66.000 C 73.600 66.220,73.345 66.400,73.033 66.400 C 72.722 66.400,72.407 66.535,72.333 66.700 C 72.260 66.865,71.480 67.358,70.600 67.796 C 69.720 68.234,68.910 68.684,68.800 68.796 C 68.286 69.320,66.006 70.400,65.415 70.400 C 65.051 70.400,64.864 70.580,65.000 70.800 C 65.136 71.020,64.967 71.200,64.624 71.200 C 64.281 71.200,64.000 71.380,64.000 71.600 C 64.000 71.820,63.550 72.000,63.000 72.000 C 62.450 72.000,62.000 72.137,62.000 72.305 C 62.000 72.611,60.815 73.333,59.500 73.829 C 59.115 73.974,58.800 74.252,58.800 74.447 C 58.800 74.641,58.429 74.800,57.976 74.800 C 57.523 74.800,57.264 74.980,57.400 75.200 C 57.536 75.420,57.289 75.600,56.852 75.600 C 56.415 75.600,55.742 75.915,55.357 76.300 C 54.972 76.685,54.644 76.915,54.629 76.812 C 54.613 76.709,53.758 77.204,52.728 77.912 C 51.698 78.620,50.595 79.200,50.277 79.200 C 49.958 79.200,49.474 79.470,49.200 79.800 C 48.926 80.130,48.353 80.400,47.927 80.400 C 47.501 80.400,47.264 80.580,47.400 80.800 C 47.536 81.020,47.277 81.200,46.824 81.200 C 46.371 81.200,46.000 81.399,46.000 81.643 C 46.000 81.886,45.730 81.982,45.400 81.855 C 45.070 81.729,44.800 81.799,44.800 82.013 C 44.800 82.226,44.530 82.400,44.200 82.400 C 43.870 82.400,43.599 82.535,43.597 82.700 C 43.594 83.102,41.281 84.400,40.568 84.400 C 40.255 84.400,40.000 84.580,40.000 84.800 C 40.000 85.020,39.764 85.200,39.475 85.200 C 39.187 85.200,38.557 85.567,38.075 86.016 C 37.594 86.464,37.200 86.698,37.200 86.536 C 37.200 86.373,36.984 86.456,36.720 86.720 C 36.456 86.984,35.998 87.200,35.703 87.200 C 35.173 87.200,34.679 87.531,33.171 88.900 C 32.747 89.285,32.141 89.600,31.824 89.600 C 31.507 89.600,31.134 89.783,30.996 90.007 C 30.858 90.230,30.577 90.309,30.372 90.183 C 30.168 90.056,30.000 90.119,30.000 90.322 C 30.000 90.524,28.638 91.382,26.973 92.227 C 25.309 93.072,23.858 93.906,23.750 94.081 C 23.641 94.257,23.193 94.400,22.753 94.400 C 22.313 94.400,22.064 94.580,22.200 94.800 C 22.422 95.160,21.897 95.373,21.100 95.247 C 20.935 95.221,20.800 95.391,20.800 95.624 C 20.800 95.857,20.647 95.953,20.461 95.837 C 20.274 95.722,19.741 95.981,19.277 96.414 C 18.813 96.846,18.156 97.200,17.817 97.200 C 17.478 97.200,17.198 97.335,17.196 97.500 C 17.194 97.665,16.384 98.155,15.396 98.590 C 14.408 99.024,13.600 99.519,13.600 99.690 C 13.600 99.860,13.330 100.000,13.000 100.000 C 12.670 100.000,12.400 100.180,12.400 100.400 C 12.400 100.620,12.134 100.800,11.810 100.800 C 11.485 100.800,10.630 101.159,9.910 101.599 C 9.189 102.038,8.771 102.398,8.981 102.399 C 9.190 102.399,8.425 103.056,7.281 103.857 C 6.136 104.658,5.200 105.462,5.200 105.643 C 5.200 105.824,4.641 106.608,3.959 107.386 C 3.276 108.164,2.853 108.800,3.020 108.800 C 3.186 108.800,2.907 109.160,2.400 109.600 C 1.893 110.040,1.631 110.400,1.819 110.400 C 2.006 110.400,1.944 110.616,1.680 110.880 C 1.416 111.144,1.197 111.909,1.194 112.580 C 1.189 113.515,1.097 113.660,0.800 113.200 C 0.469 112.687,0.411 112.702,0.406 113.300 C 0.403 113.685,0.580 114.000,0.800 114.000 C 1.020 114.000,1.200 114.270,1.200 114.600 C 1.200 114.930,0.930 115.200,0.600 115.200 C -0.094 115.200,-0.210 116.223,0.438 116.624 C 0.721 116.798,0.768 117.411,0.572 118.347 C 0.186 120.195,0.199 320.243,0.586 323.200 C 0.744 324.410,1.037 325.571,1.237 325.780 C 1.437 325.989,1.600 326.484,1.600 326.880 C 1.600 327.276,1.780 327.600,2.000 327.600 C 2.220 327.600,2.400 327.848,2.400 328.151 C 2.400 329.233,3.570 329.812,4.532 329.206 C 6.968 327.673,13.647 324.000,13.997 324.000 C 14.219 324.000,14.400 323.841,14.400 323.647 C 14.400 323.452,14.715 323.192,15.100 323.069 C 15.485 322.945,16.700 322.317,17.800 321.673 C 20.535 320.071,24.630 317.710,26.800 316.485 C 27.790 315.926,29.230 315.108,30.000 314.667 C 30.770 314.226,32.210 313.428,33.200 312.894 C 34.190 312.360,35.180 311.784,35.400 311.615 C 35.620 311.446,36.610 310.855,37.600 310.303 C 38.590 309.751,40.542 308.646,41.938 307.849 C 43.335 307.052,44.640 306.400,44.838 306.400 C 45.037 306.400,45.200 306.241,45.200 306.047 C 45.200 305.852,45.515 305.592,45.900 305.469 C 46.285 305.345,47.500 304.715,48.600 304.069 C 53.288 301.316,59.325 298.000,59.649 298.000 C 59.842 298.000,60.000 297.841,60.000 297.647 C 60.000 297.452,60.315 297.192,60.700 297.069 C 61.450 296.828,64.417 295.157,67.091 293.469 C 67.994 292.899,69.216 292.311,69.805 292.163 C 70.394 292.015,70.717 291.783,70.523 291.647 C 70.329 291.511,69.637 290.320,68.985 289.000 C 68.333 287.680,67.701 286.510,67.580 286.400 C 67.339 286.181,65.200 281.688,65.200 281.401 C 65.200 281.303,64.768 280.273,64.239 279.112 C 62.900 276.170,61.044 271.222,59.771 267.200 C 59.179 265.330,58.563 263.440,58.403 263.000 C 57.744 261.194,57.182 259.248,56.780 257.379 C 56.545 256.291,56.184 254.635,55.977 253.700 C 55.017 249.372,54.744 247.947,54.191 244.400 C 52.925 236.267,52.628 231.823,52.628 221.000 C 52.628 210.093,52.925 205.705,54.226 197.400 C 54.571 195.200,54.942 192.770,55.051 192.000 C 55.160 191.230,55.406 190.240,55.598 189.800 C 55.789 189.360,56.036 188.460,56.147 187.800 C 56.674 184.657,57.468 181.562,58.403 179.000 C 58.563 178.560,59.179 176.670,59.771 174.800 C 61.044 170.778,62.900 165.830,64.239 162.888 C 64.768 161.727,65.200 160.697,65.200 160.599 C 65.200 160.312,67.339 155.819,67.580 155.600 C 67.701 155.490,68.766 153.527,69.946 151.239 C 77.433 136.720,91.070 119.678,103.600 109.183 C 105.030 107.985,106.290 106.904,106.400 106.781 C 106.510 106.658,107.320 106.027,108.200 105.379 C 109.079 104.730,110.159 103.874,110.600 103.475 C 111.600 102.570,123.304 94.778,125.200 93.755 C 125.970 93.340,126.690 92.910,126.800 92.800 C 127.294 92.306,136.120 87.773,138.800 86.637 C 139.790 86.217,141.590 85.434,142.800 84.896 C 144.010 84.358,145.360 83.777,145.800 83.606 C 146.240 83.436,147.320 83.009,148.200 82.659 C 149.946 81.965,157.523 79.563,160.400 78.791 C 161.390 78.526,162.560 78.168,163.000 77.997 C 163.440 77.825,165.330 77.381,167.200 77.009 C 169.070 76.638,171.320 76.178,172.200 75.986 C 180.055 74.278,187.780 73.621,200.000 73.621 C 213.228 73.621,219.719 74.246,231.000 76.607 C 232.760 76.975,234.787 77.369,235.504 77.483 C 236.221 77.596,236.906 77.849,237.027 78.044 C 237.148 78.240,237.766 78.400,238.400 78.400 C 239.034 78.400,239.664 78.580,239.800 78.800 C 239.936 79.020,240.376 79.200,240.778 79.200 C 241.509 79.200,245.095 80.196,246.600 80.817 C 247.040 80.999,248.570 81.540,250.000 82.020 C 252.682 82.919,253.639 83.299,256.917 84.764 C 257.971 85.235,259.591 85.920,260.517 86.287 C 262.901 87.233,272.626 92.226,273.200 92.800 C 273.310 92.910,274.030 93.347,274.800 93.771 C 275.570 94.194,276.551 94.734,276.980 94.971 C 277.408 95.207,277.948 95.537,278.180 95.705 C 278.411 95.872,281.120 97.735,284.200 99.844 C 287.280 101.952,289.890 103.796,290.000 103.941 C 290.110 104.086,290.920 104.734,291.800 105.381 C 292.680 106.028,293.490 106.657,293.600 106.779 C 293.710 106.900,294.970 107.978,296.400 109.174 C 306.247 117.408,317.526 130.550,325.004 142.505 C 326.072 144.213,327.048 145.459,327.173 145.274 C 327.298 145.089,327.940 144.663,328.600 144.327 C 329.716 143.759,332.106 142.393,337.000 139.527 C 338.100 138.883,339.315 138.255,339.700 138.131 C 340.085 138.008,340.400 137.748,340.400 137.553 C 340.400 137.359,340.563 137.200,340.762 137.200 C 340.960 137.200,342.265 136.548,343.662 135.750 C 345.058 134.953,346.920 133.900,347.800 133.410 C 348.680 132.921,350.570 131.841,352.000 131.011 C 354.899 129.329,356.165 128.603,358.800 127.115 C 359.790 126.556,361.770 125.424,363.200 124.599 C 364.630 123.775,366.520 122.702,367.400 122.215 C 368.280 121.728,369.990 120.750,371.200 120.043 C 372.410 119.335,373.715 118.655,374.100 118.531 C 374.485 118.408,374.800 118.148,374.800 117.953 C 374.800 117.759,374.963 117.600,375.162 117.600 C 375.360 117.600,376.665 116.948,378.062 116.151 C 379.458 115.354,381.410 114.249,382.400 113.697 C 383.390 113.145,384.380 112.556,384.600 112.389 C 384.998 112.086,385.643 111.720,390.200 109.207 C 394.065 107.076,394.082 107.060,393.406 106.167 C 393.087 105.745,392.820 104.995,392.813 104.500 C 392.806 104.005,392.607 103.600,392.371 103.600 C 391.815 103.600,390.784 102.569,391.019 102.248 C 391.119 102.111,391.078 102.092,390.930 102.204 C 390.781 102.316,390.241 102.014,389.730 101.534 C 389.218 101.054,388.800 100.792,388.800 100.953 C 388.800 101.114,388.260 100.926,387.600 100.536 C 386.940 100.146,386.400 99.686,386.400 99.514 C 386.400 99.341,386.040 99.200,385.600 99.200 C 385.160 99.200,384.800 99.047,384.800 98.860 C 384.800 98.673,383.990 98.187,383.000 97.778 C 382.010 97.370,381.200 96.893,381.200 96.718 C 381.200 96.543,380.930 96.400,380.600 96.400 C 380.270 96.400,380.000 96.209,380.000 95.976 C 380.000 95.743,379.820 95.664,379.601 95.800 C 379.137 96.086,377.508 95.058,377.803 94.664 C 377.911 94.519,377.888 94.482,377.750 94.583 C 377.441 94.810,374.546 93.360,374.204 92.806 C 374.066 92.583,373.573 92.400,373.110 92.400 C 372.646 92.400,372.383 92.284,372.524 92.142 C 372.795 91.871,368.529 89.604,367.743 89.602 C 367.491 89.601,367.181 89.327,367.053 88.994 C 366.830 88.412,364.922 87.401,364.300 87.535 C 364.135 87.571,364.000 87.420,364.000 87.200 C 364.000 86.980,363.640 86.800,363.200 86.800 C 362.760 86.800,362.400 86.620,362.400 86.400 C 362.400 86.180,362.130 86.000,361.800 86.000 C 361.470 86.000,361.200 85.820,361.200 85.600 C 361.200 85.380,360.930 85.200,360.600 85.200 C 360.270 85.200,360.000 85.034,360.000 84.832 C 360.000 84.629,359.460 84.345,358.800 84.200 C 358.140 84.055,357.600 83.816,357.600 83.668 C 357.600 83.521,356.432 82.860,355.005 82.200 C 353.578 81.540,352.408 80.865,352.405 80.700 C 352.402 80.535,352.130 80.400,351.800 80.400 C 351.470 80.400,351.200 80.209,351.200 79.976 C 351.200 79.743,351.035 79.655,350.832 79.780 C 350.630 79.905,350.217 79.759,349.914 79.456 C 349.611 79.153,348.966 78.780,348.481 78.626 C 347.997 78.472,347.600 78.212,347.600 78.048 C 347.600 77.884,346.970 77.502,346.200 77.200 C 345.430 76.898,344.800 76.485,344.800 76.283 C 344.800 76.080,344.521 76.022,344.179 76.153 C 343.823 76.289,343.663 76.222,343.803 75.995 C 343.937 75.778,343.677 75.600,343.224 75.600 C 342.771 75.600,342.400 75.420,342.400 75.200 C 342.400 74.980,342.130 74.800,341.800 74.800 C 341.470 74.800,341.200 74.609,341.200 74.376 C 341.200 74.143,341.040 74.051,340.845 74.172 C 340.650 74.293,340.261 74.115,339.981 73.777 C 339.701 73.440,339.231 73.256,338.936 73.369 C 338.641 73.482,338.400 73.401,338.400 73.187 C 338.400 72.974,338.145 72.800,337.833 72.800 C 337.522 72.800,337.207 72.645,337.133 72.456 C 337.060 72.267,335.796 71.465,334.324 70.674 C 330.535 68.639,329.901 68.265,329.287 67.700 C 328.988 67.425,328.396 67.200,327.971 67.200 C 327.547 67.200,327.200 67.059,327.200 66.886 C 327.200 66.502,324.718 64.981,324.300 65.108 C 324.135 65.159,324.000 65.009,324.000 64.776 C 324.000 64.543,323.840 64.451,323.645 64.572 C 323.450 64.693,323.068 64.523,322.796 64.196 C 322.524 63.868,321.964 63.600,321.551 63.600 C 321.138 63.600,320.800 63.420,320.800 63.200 C 320.800 62.980,320.530 62.800,320.200 62.800 C 319.870 62.800,319.600 62.623,319.600 62.408 C 319.600 62.192,319.150 61.902,318.600 61.764 C 318.050 61.626,317.600 61.353,317.600 61.157 C 317.600 60.960,317.240 60.800,316.800 60.800 C 316.360 60.800,316.000 60.620,316.000 60.400 C 316.000 60.180,315.730 60.000,315.400 60.000 C 315.070 60.000,314.800 59.820,314.800 59.600 C 314.800 59.380,314.440 59.200,314.000 59.200 C 313.560 59.200,313.200 59.034,313.200 58.832 C 313.200 58.629,312.679 58.349,312.041 58.209 C 311.404 58.069,310.566 57.605,310.179 57.177 C 309.793 56.750,309.234 56.400,308.938 56.400 C 308.642 56.400,308.400 56.226,308.400 56.013 C 308.400 55.799,308.085 55.738,307.700 55.876 C 307.315 56.014,307.134 55.980,307.298 55.799 C 307.549 55.523,304.586 53.869,304.283 54.116 C 304.227 54.162,303.666 53.795,303.036 53.300 C 302.407 52.805,301.686 52.400,301.434 52.400 C 301.183 52.400,300.717 52.040,300.400 51.600 C 300.083 51.160,299.503 50.800,299.112 50.800 C 298.720 50.800,298.400 50.590,298.400 50.333 C 298.400 50.077,298.293 49.974,298.162 50.105 C 298.031 50.236,297.305 49.996,296.550 49.572 C 295.794 49.147,294.930 48.800,294.631 48.800 C 294.331 48.800,293.975 48.511,293.839 48.158 C 293.699 47.792,293.337 47.615,292.997 47.746 C 292.635 47.885,292.400 47.744,292.400 47.387 C 292.400 47.064,292.135 46.800,291.812 46.800 C 291.488 46.800,290.445 46.252,289.495 45.581 C 288.544 44.911,287.368 44.333,286.883 44.296 C 286.397 44.260,286.000 44.067,286.000 43.868 C 286.000 43.669,285.640 43.601,285.200 43.716 C 284.590 43.875,284.400 43.728,284.400 43.096 C 284.400 42.640,284.285 42.381,284.145 42.522 C 284.005 42.662,283.420 42.447,282.845 42.045 C 282.270 41.643,281.550 41.402,281.244 41.509 C 280.872 41.639,280.794 41.534,281.007 41.189 C 281.240 40.811,281.099 40.733,280.476 40.896 C 280.009 41.018,279.643 41.001,279.661 40.859 C 279.774 39.995,279.504 39.600,278.800 39.600 C 278.360 39.600,278.000 39.401,278.000 39.157 C 278.000 38.914,277.731 38.818,277.403 38.944 C 277.075 39.070,276.585 38.936,276.315 38.647 C 276.045 38.358,275.473 38.213,275.044 38.325 C 274.450 38.480,274.324 38.374,274.515 37.877 C 274.834 37.047,274.026 36.515,273.561 37.249 C 273.290 37.678,273.211 37.635,273.206 37.057 C 273.202 36.551,273.002 36.390,272.579 36.553 C 272.238 36.684,272.049 36.645,272.159 36.467 C 272.538 35.853,270.933 34.830,270.391 35.339 C 270.019 35.688,269.855 35.678,269.717 35.300 C 269.616 35.025,269.194 34.800,268.779 34.800 C 268.249 34.800,268.099 34.608,268.273 34.154 C 268.470 33.640,268.345 33.564,267.661 33.781 C 267.120 33.952,266.800 33.883,266.800 33.594 C 266.800 33.340,266.577 33.208,266.304 33.299 C 265.650 33.517,264.800 32.641,264.800 31.749 C 264.800 31.197,264.693 31.147,264.320 31.520 C 263.665 32.175,263.066 32.126,263.330 31.439 C 263.666 30.563,263.137 30.336,262.552 31.106 C 262.067 31.746,262.024 31.729,262.013 30.900 C 262.006 30.405,261.820 30.000,261.600 30.000 C 261.380 30.000,261.200 30.180,261.200 30.400 C 261.200 30.620,261.008 30.800,260.773 30.800 C 260.531 30.800,260.443 30.411,260.569 29.900 C 260.692 29.405,260.689 29.225,260.563 29.500 C 260.079 30.554,258.411 29.503,258.388 28.129 C 258.376 27.437,258.355 27.436,257.963 28.108 C 257.485 28.930,256.725 28.660,257.060 27.787 C 257.332 27.079,256.745 27.015,256.080 27.680 C 255.707 28.053,255.600 28.053,255.600 27.680 C 255.600 27.416,255.240 27.200,254.800 27.200 C 254.360 27.200,254.000 27.063,254.000 26.895 C 254.000 26.727,253.595 26.410,253.100 26.191 C 252.605 25.971,252.226 25.472,252.258 25.082 C 252.303 24.529,252.196 24.471,251.775 24.820 C 251.112 25.371,250.402 24.988,250.394 24.076 C 250.389 23.493,250.334 23.482,249.994 24.000 C 249.725 24.409,249.505 24.462,249.300 24.164 C 249.135 23.925,248.235 23.395,247.300 22.987 C 246.365 22.580,245.600 22.028,245.600 21.760 C 245.600 21.459,245.271 21.361,244.733 21.502 C 244.065 21.676,243.920 21.586,244.103 21.110 C 244.282 20.642,244.141 20.543,243.525 20.704 C 242.824 20.887,242.747 20.781,242.981 19.959 C 243.166 19.304,243.133 19.172,242.876 19.543 C 242.383 20.254,240.659 19.746,240.954 18.977 C 241.070 18.674,240.993 18.319,240.783 18.189 C 240.572 18.059,240.400 18.143,240.400 18.376 C 240.400 18.609,240.118 18.800,239.773 18.800 C 239.328 18.800,239.220 18.568,239.400 18.000 C 239.540 17.560,239.477 17.200,239.260 17.200 C 239.044 17.200,238.791 17.425,238.698 17.700 C 238.569 18.083,238.398 18.091,237.965 17.734 C 237.654 17.478,237.269 17.237,237.109 17.199 C 235.634 16.849,235.200 16.656,235.200 16.353 C 235.200 16.159,234.918 16.000,234.573 16.000 C 234.117 16.000,234.013 15.755,234.192 15.100 C 234.407 14.315,234.381 14.291,233.995 14.908 C 233.409 15.843,232.697 15.371,233.025 14.266 C 233.280 13.409,233.276 13.409,232.649 14.200 C 232.258 14.694,231.897 14.847,231.708 14.600 C 231.405 14.207,229.558 13.132,226.800 11.746 C 226.030 11.358,225.310 10.942,225.200 10.821 C 225.090 10.699,224.280 10.234,223.400 9.787 C 222.382 9.270,221.821 8.719,221.858 8.273 C 221.907 7.684,221.816 7.654,221.293 8.086 C 220.798 8.494,220.635 8.497,220.502 8.100 C 220.409 7.825,219.988 7.600,219.567 7.600 C 219.145 7.600,218.800 7.434,218.800 7.232 C 218.800 7.029,218.260 6.745,217.600 6.600 C 216.940 6.455,216.400 6.171,216.400 5.968 C 216.400 5.766,216.130 5.600,215.800 5.600 C 215.470 5.600,215.200 5.420,215.200 5.200 C 215.200 4.980,214.975 4.799,214.700 4.798 C 214.198 4.795,213.413 4.418,210.773 2.911 C 209.988 2.462,208.728 1.963,207.973 1.802 C 207.218 1.640,206.420 1.366,206.200 1.193 C 205.467 0.617,200.714 0.278,196.300 0.486 C 195.365 0.530,194.285 0.420,193.900 0.240 C 193.388 0.002,193.200 0.087,193.200 0.557 M190.600 148.419 C 184.315 149.301,182.633 149.643,179.000 150.772 C 164.805 155.183,153.032 162.988,143.663 174.200 C 140.650 177.805,136.400 183.966,136.400 184.728 C 136.400 184.951,136.265 185.193,136.100 185.267 C 135.607 185.486,132.431 192.210,131.220 195.600 C 130.944 196.370,130.582 197.360,130.415 197.800 C 129.632 199.858,128.711 203.653,127.648 209.200 C 126.363 215.900,126.363 226.100,127.648 232.800 C 128.711 238.347,129.632 242.142,130.415 244.200 C 130.582 244.640,130.944 245.630,131.220 246.400 C 132.007 248.603,132.811 250.469,133.705 252.170 C 134.158 253.033,134.662 254.293,134.824 254.970 C 135.020 255.791,135.132 255.924,135.159 255.370 C 135.190 254.750,136.184 254.000,139.100 252.397 C 141.245 251.218,143.630 249.907,144.400 249.484 C 145.170 249.061,145.980 248.578,146.200 248.411 C 146.420 248.244,147.410 247.655,148.400 247.103 C 149.390 246.551,151.370 245.422,152.800 244.594 C 154.230 243.767,156.300 242.620,157.400 242.045 C 158.500 241.470,159.490 240.910,159.600 240.800 C 159.710 240.690,160.160 240.404,160.600 240.164 C 161.914 239.448,164.833 237.795,167.600 236.200 C 169.030 235.376,171.010 234.244,172.000 233.685 C 173.931 232.595,174.629 232.197,179.076 229.656 C 183.522 227.117,184.408 226.609,187.200 225.000 C 188.630 224.176,190.610 223.044,191.600 222.485 C 192.590 221.926,194.030 221.108,194.800 220.668 C 195.570 220.228,198.000 218.853,200.200 217.613 C 202.400 216.373,204.650 215.075,205.200 214.728 C 205.750 214.382,207.190 213.559,208.400 212.901 C 209.610 212.242,211.680 211.077,213.000 210.311 C 216.521 208.268,223.926 204.031,226.000 202.873 C 228.081 201.712,229.213 201.067,232.800 199.000 C 234.230 198.176,236.210 197.044,237.200 196.485 C 238.190 195.926,239.630 195.108,240.400 194.667 C 241.170 194.226,242.610 193.428,243.600 192.894 C 244.590 192.360,245.580 191.784,245.800 191.615 C 246.020 191.446,247.010 190.858,248.000 190.310 C 248.990 189.761,251.966 188.072,254.613 186.556 C 257.261 185.040,260.080 183.452,260.879 183.028 L 262.331 182.255 260.741 179.913 C 252.766 168.169,241.484 159.033,227.600 153.076 C 216.948 148.506,202.728 146.716,190.600 148.419 M195.700 294.676 C 196.085 294.776,196.715 294.776,197.100 294.676 C 197.485 294.575,197.170 294.493,196.400 294.493 C 195.630 294.493,195.315 294.575,195.700 294.676 M202.900 294.676 C 203.285 294.776,203.915 294.776,204.300 294.676 C 204.685 294.575,204.370 294.493,203.600 294.493 C 202.830 294.493,202.515 294.575,202.900 294.676 " stroke="none" fill="#649cd3" fill-rule="evenodd"></path><path id="path1" d="M192.400 74.023 C 181.187 74.634,167.890 76.868,159.000 79.633 C 152.065 81.791,148.449 83.048,145.740 84.244 C 145.046 84.550,144.377 84.800,144.251 84.800 C 143.456 84.800,131.084 90.827,127.267 93.074 C 125.654 94.023,124.283 94.800,124.220 94.800 C 124.066 94.800,119.236 97.964,115.826 100.300 C 68.215 132.907,43.582 194.603,55.818 250.600 C 56.155 252.140,56.533 253.940,56.659 254.600 C 58.545 264.470,65.665 282.790,71.186 291.977 C 72.294 293.820,73.200 295.403,73.200 295.496 C 73.200 295.771,78.140 303.355,78.694 303.931 C 78.975 304.223,79.402 304.830,79.642 305.279 C 80.108 306.149,83.084 310.185,84.777 312.243 C 85.340 312.927,86.144 313.917,86.565 314.443 C 91.938 321.167,101.983 331.008,108.792 336.217 C 110.217 337.308,111.747 338.526,112.192 338.924 C 113.064 339.704,124.220 347.200,124.510 347.200 C 124.606 347.200,126.196 348.063,128.043 349.118 C 132.511 351.670,143.022 356.800,143.782 356.800 C 143.907 356.800,144.772 357.149,145.704 357.575 C 146.637 358.001,148.840 358.822,150.600 359.399 C 152.360 359.977,154.160 360.614,154.600 360.815 C 155.497 361.225,160.859 362.775,162.400 363.069 C 162.950 363.174,163.760 363.414,164.200 363.603 C 164.640 363.791,165.540 364.032,166.200 364.139 C 166.860 364.245,168.840 364.621,170.600 364.974 C 179.347 366.730,181.797 367.037,192.100 367.662 C 204.468 368.414,216.974 367.518,229.400 364.991 C 231.160 364.633,233.276 364.244,234.103 364.128 C 234.929 364.011,235.705 363.755,235.826 363.558 C 235.948 363.361,236.408 363.200,236.848 363.200 C 237.289 363.200,238.494 362.942,239.525 362.627 C 240.556 362.312,242.660 361.672,244.200 361.206 C 248.214 359.991,252.423 358.461,255.660 357.041 C 256.464 356.688,257.239 356.400,257.384 356.400 C 257.917 356.400,269.384 350.677,272.275 348.968 C 273.920 347.996,275.353 347.200,275.458 347.200 C 275.936 347.200,286.419 340.013,289.915 337.289 C 296.963 331.797,305.071 324.164,310.404 318.000 C 311.831 316.350,313.103 314.910,313.231 314.800 C 313.511 314.558,319.531 306.608,320.501 305.200 C 324.369 299.582,327.792 294.027,327.519 293.809 C 327.453 293.757,325.960 292.941,324.200 291.996 C 322.440 291.051,319.769 289.585,318.264 288.739 C 316.759 287.892,315.462 287.200,315.382 287.200 C 315.301 287.200,314.289 286.642,313.133 285.960 C 311.977 285.279,309.854 284.082,308.415 283.300 C 304.480 281.163,301.559 279.559,300.000 278.680 C 299.230 278.246,297.430 277.257,296.000 276.482 C 294.570 275.708,292.821 274.748,292.112 274.351 C 291.404 273.953,289.604 272.964,288.112 272.154 C 286.621 271.343,284.590 270.227,283.600 269.674 C 281.587 268.548,279.736 267.527,276.200 265.594 C 274.880 264.872,272.990 263.834,272.000 263.287 C 271.010 262.740,268.725 261.499,266.922 260.529 L 263.644 258.766 261.241 262.339 C 257.138 268.440,252.220 273.825,246.600 278.368 C 243.668 280.739,239.734 283.600,239.407 283.600 C 239.302 283.600,238.267 284.196,237.108 284.925 C 235.948 285.653,234.010 286.716,232.800 287.286 C 231.590 287.856,229.880 288.660,229.000 289.073 C 228.120 289.485,225.780 290.335,223.800 290.961 C 221.820 291.586,219.840 292.234,219.400 292.400 C 215.539 293.856,208.997 294.597,200.000 294.597 C 191.003 294.597,184.461 293.856,180.600 292.400 C 180.160 292.234,178.180 291.586,176.200 290.961 C 174.220 290.335,171.880 289.485,171.000 289.073 C 170.120 288.660,168.410 287.857,167.200 287.287 C 148.416 278.446,133.155 259.255,128.257 238.315 C 126.718 231.739,126.600 230.502,126.600 221.000 C 126.600 211.498,126.718 210.261,128.257 203.685 C 132.262 186.560,143.164 170.676,158.000 160.347 C 160.389 158.683,161.596 157.947,165.638 155.687 C 171.057 152.658,180.015 149.592,186.800 148.445 C 193.138 147.374,194.978 147.200,200.000 147.200 C 205.022 147.200,206.862 147.374,213.200 148.445 C 231.608 151.557,249.293 162.785,259.902 178.094 C 262.837 182.330,263.189 182.500,265.576 180.831 C 266.139 180.437,267.410 179.662,268.400 179.109 C 269.390 178.556,272.180 176.973,274.600 175.591 C 277.020 174.209,279.540 172.773,280.200 172.400 C 281.318 171.767,287.128 168.444,292.538 165.341 C 293.825 164.603,294.967 164.000,295.077 164.000 C 295.187 164.000,295.754 163.666,296.338 163.257 C 296.922 162.849,298.210 162.066,299.200 161.518 C 300.190 160.970,302.980 159.391,305.400 158.009 C 307.820 156.627,310.610 155.040,311.600 154.482 C 312.590 153.925,313.940 153.163,314.600 152.791 C 321.124 149.108,326.183 146.052,326.290 145.729 C 326.444 145.269,321.541 137.882,317.444 132.400 C 307.338 118.878,294.458 106.975,278.691 96.585 C 277.200 95.603,275.910 94.800,275.824 94.800 C 275.737 94.800,274.292 93.987,272.612 92.994 C 268.500 90.563,258.361 85.673,254.283 84.153 C 253.357 83.808,252.240 83.364,251.800 83.166 C 250.243 82.467,241.353 79.666,238.000 78.818 C 236.130 78.345,233.970 77.789,233.200 77.581 C 230.952 76.975,224.143 75.790,217.400 74.831 C 215.860 74.612,212.350 74.331,209.600 74.208 C 206.850 74.084,203.250 73.916,201.600 73.834 C 199.950 73.752,195.810 73.837,192.400 74.023 " stroke="none" fill="#fbfbfb" fill-rule="evenodd"></path><path id="path2" d="M395.164 106.625 C 395.018 106.986,391.033 109.600,390.627 109.600 C 390.539 109.600,389.146 110.380,387.533 111.333 C 385.920 112.286,383.790 113.522,382.800 114.081 C 381.810 114.639,379.020 116.227,376.600 117.609 C 374.180 118.991,371.660 120.427,371.000 120.800 C 369.981 121.376,363.950 124.817,359.800 127.189 C 359.140 127.566,354.730 130.087,350.000 132.791 C 345.270 135.495,340.590 138.163,339.600 138.720 C 338.610 139.276,337.170 140.093,336.400 140.534 C 335.630 140.975,333.380 142.233,331.400 143.329 C 329.420 144.426,327.530 145.640,327.200 146.028 C 326.678 146.642,325.806 147.181,321.800 149.364 C 321.360 149.604,320.910 149.890,320.800 150.000 C 320.690 150.110,320.240 150.396,319.800 150.636 C 319.360 150.876,318.100 151.581,317.000 152.203 C 315.900 152.824,314.280 153.728,313.400 154.210 C 312.520 154.693,310.900 155.592,309.800 156.208 C 308.700 156.824,307.440 157.524,307.000 157.764 C 306.560 158.004,306.110 158.290,306.000 158.400 C 305.820 158.580,304.443 159.367,302.200 160.571 C 301.760 160.807,301.310 161.090,301.200 161.200 C 301.090 161.310,300.640 161.596,300.200 161.836 C 297.337 163.396,295.345 164.525,295.000 164.781 C 294.780 164.945,293.182 165.839,291.449 166.768 C 287.275 169.005,286.637 169.363,286.400 169.600 C 286.220 169.780,284.843 170.567,282.600 171.771 C 282.160 172.007,281.710 172.290,281.600 172.400 C 281.365 172.635,279.584 173.633,277.143 174.897 C 276.184 175.394,275.310 175.903,275.200 176.029 C 275.090 176.155,274.730 176.374,274.400 176.515 C 274.070 176.656,272.720 177.411,271.400 178.193 C 270.080 178.974,268.550 179.832,268.000 180.099 C 267.450 180.366,266.910 180.682,266.800 180.802 C 266.607 181.012,264.114 182.234,261.200 183.547 C 260.430 183.893,259.107 184.601,258.260 185.119 C 257.413 185.637,255.883 186.526,254.860 187.096 C 251.759 188.823,250.776 189.378,246.200 191.991 C 243.780 193.373,240.990 194.960,240.000 195.518 C 236.554 197.459,235.770 197.906,230.828 200.744 C 228.094 202.315,225.795 203.600,225.720 203.600 C 225.645 203.600,224.850 204.064,223.952 204.630 C 223.055 205.197,221.483 206.126,220.460 206.696 C 218.339 207.877,217.252 208.496,213.600 210.601 C 212.170 211.425,210.280 212.497,209.400 212.983 C 205.683 215.036,203.776 216.126,203.400 216.411 C 202.971 216.737,201.607 217.508,197.312 219.854 C 195.821 220.669,193.929 221.755,193.108 222.268 C 192.287 222.780,191.537 223.200,191.441 223.200 C 191.345 223.200,189.946 223.980,188.333 224.933 C 186.720 225.886,184.590 227.125,183.600 227.687 C 182.610 228.248,179.910 229.779,177.600 231.088 C 175.290 232.396,172.770 233.830,172.000 234.273 C 168.993 236.004,158.104 242.175,156.400 243.115 C 155.410 243.660,154.420 244.244,154.200 244.412 C 153.980 244.579,152.900 245.215,151.800 245.824 C 149.188 247.271,148.317 247.764,142.583 251.044 C 139.933 252.560,137.278 254.055,136.683 254.368 C 136.082 254.683,135.600 255.275,135.600 255.699 C 135.600 256.362,139.467 262.762,141.199 264.965 C 147.772 273.330,155.350 279.965,164.000 284.928 C 166.488 286.355,171.521 288.800,171.972 288.800 C 172.213 288.800,172.723 288.959,173.105 289.153 C 175.188 290.213,177.750 291.014,184.700 292.781 C 192.149 294.675,207.654 294.692,215.200 292.814 C 219.083 291.848,223.825 290.495,225.000 290.018 C 225.440 289.840,227.060 289.186,228.600 288.566 C 238.191 284.703,248.275 277.307,255.602 268.761 C 259.010 264.785,259.071 264.705,261.400 261.103 C 263.664 257.602,263.504 257.688,265.508 258.909 C 266.329 259.409,267.540 260.084,268.200 260.408 C 268.860 260.733,269.490 261.089,269.600 261.200 C 269.710 261.310,270.610 261.812,271.600 262.315 C 272.590 262.818,273.940 263.539,274.600 263.917 C 275.260 264.296,277.240 265.393,279.000 266.357 C 280.760 267.321,283.190 268.656,284.400 269.325 C 285.610 269.994,287.320 270.914,288.200 271.371 C 289.080 271.827,289.890 272.290,290.000 272.400 C 290.241 272.641,291.033 273.085,294.870 275.133 C 296.482 275.993,298.430 277.048,299.200 277.477 C 299.970 277.906,301.590 278.783,302.800 279.426 C 304.010 280.068,305.090 280.690,305.200 280.807 C 305.310 280.924,306.300 281.483,307.400 282.050 C 308.500 282.617,310.210 283.531,311.200 284.080 C 312.190 284.630,314.221 285.743,315.712 286.554 C 317.204 287.364,319.004 288.349,319.712 288.742 C 320.421 289.136,321.990 289.983,323.200 290.626 C 324.410 291.268,325.490 291.886,325.600 291.998 C 325.710 292.110,326.295 292.456,326.900 292.768 C 328.098 293.386,328.247 293.982,327.541 295.326 C 327.041 296.278,321.643 304.751,321.123 305.400 C 320.947 305.620,319.249 307.852,317.350 310.361 C 301.182 331.720,277.211 349.795,253.400 358.581 C 251.200 359.393,249.087 360.224,248.705 360.429 C 248.323 360.633,247.736 360.800,247.400 360.800 C 247.064 360.800,246.477 360.967,246.095 361.171 C 245.455 361.513,243.506 362.119,239.400 363.251 C 238.520 363.494,237.350 363.843,236.800 364.026 C 223.290 368.528,192.966 369.715,175.000 366.444 C 169.329 365.412,165.043 364.491,162.000 363.650 C 157.446 362.392,154.502 361.514,153.800 361.205 C 153.360 361.011,151.560 360.365,149.800 359.769 C 148.040 359.173,145.891 358.351,145.025 357.943 C 144.159 357.534,143.293 357.200,143.102 357.200 C 142.640 357.200,128.801 350.356,126.000 348.743 C 112.155 340.768,99.086 329.792,87.125 316.094 C 86.534 315.417,84.513 312.824,82.635 310.331 C 80.757 307.839,79.071 305.620,78.889 305.400 C 78.362 304.765,73.059 296.395,71.857 294.300 C 70.444 291.838,71.797 291.428,61.000 297.585 C 60.340 297.961,58.720 298.863,57.400 299.588 C 56.080 300.313,54.820 301.043,54.600 301.211 C 54.380 301.379,53.300 302.015,52.200 302.624 C 49.994 303.846,49.725 303.998,43.400 307.609 C 40.980 308.991,38.460 310.427,37.800 310.800 C 37.140 311.173,34.620 312.609,32.200 313.991 C 29.780 315.373,27.080 316.913,26.200 317.413 C 25.320 317.913,19.839 321.040,14.021 324.361 C 2.104 331.164,3.110 330.727,2.400 329.400 C 2.106 328.850,1.715 328.400,1.532 328.400 C 1.350 328.400,1.200 328.040,1.200 327.600 C 1.200 327.160,1.020 326.800,0.800 326.800 C 0.580 326.800,0.400 327.160,0.400 327.600 C 0.400 328.040,0.580 328.400,0.800 328.400 C 1.020 328.400,1.200 328.688,1.200 329.040 C 1.200 329.976,2.447 332.499,3.280 333.247 C 3.676 333.603,4.000 334.060,4.000 334.264 C 4.000 334.850,7.635 338.400,8.236 338.400 C 8.385 338.400,8.797 338.730,9.153 339.133 C 9.509 339.537,10.565 340.201,11.500 340.610 C 12.435 341.019,13.200 341.499,13.200 341.677 C 13.200 341.855,13.470 342.000,13.800 342.000 C 14.130 342.000,14.400 342.180,14.400 342.400 C 14.400 342.620,14.760 342.800,15.200 342.800 C 15.640 342.800,16.000 342.941,16.000 343.112 C 16.000 343.284,16.495 343.631,17.100 343.884 C 18.366 344.413,20.504 345.674,20.804 346.068 C 20.916 346.216,21.546 346.470,22.204 346.632 C 22.862 346.795,23.670 347.223,24.000 347.584 C 24.625 348.268,27.220 349.600,27.927 349.600 C 28.151 349.600,28.393 349.766,28.467 349.970 C 28.540 350.173,28.855 350.398,29.167 350.470 C 29.478 350.541,30.059 350.910,30.456 351.290 C 30.854 351.669,31.634 352.094,32.190 352.233 C 32.745 352.373,33.200 352.647,33.200 352.843 C 33.200 353.040,33.478 353.200,33.817 353.200 C 34.156 353.200,34.831 353.572,35.317 354.027 C 35.803 354.483,36.695 354.955,37.300 355.077 C 37.905 355.200,38.400 355.457,38.400 355.650 C 38.400 355.843,38.670 356.000,39.000 356.000 C 39.330 356.000,39.602 356.135,39.605 356.300 C 39.607 356.465,40.372 356.957,41.305 357.394 C 42.237 357.831,43.090 358.281,43.200 358.395 C 43.310 358.508,43.940 358.871,44.600 359.201 C 45.260 359.530,46.038 360.025,46.329 360.300 C 46.619 360.575,47.114 360.800,47.429 360.800 C 47.743 360.800,48.000 360.980,48.000 361.200 C 48.000 361.420,48.360 361.600,48.800 361.600 C 49.240 361.600,49.600 361.780,49.600 362.000 C 49.600 362.220,49.870 362.400,50.200 362.400 C 50.530 362.400,50.800 362.580,50.800 362.800 C 50.800 363.020,51.147 363.200,51.571 363.200 C 51.996 363.200,52.613 363.470,52.943 363.800 C 53.273 364.130,53.736 364.400,53.971 364.400 C 54.207 364.400,54.400 364.580,54.400 364.800 C 54.400 365.020,54.760 365.200,55.200 365.200 C 55.640 365.200,56.000 365.341,56.000 365.512 C 56.000 365.684,56.495 366.031,57.100 366.284 C 58.366 366.813,60.504 368.074,60.804 368.468 C 60.916 368.616,61.546 368.870,62.204 369.032 C 62.862 369.195,63.691 369.659,64.047 370.064 C 64.403 370.469,64.898 370.800,65.147 370.800 C 65.396 370.800,65.600 370.960,65.600 371.155 C 65.600 371.351,66.217 371.627,66.971 371.768 C 67.725 371.910,68.400 372.155,68.471 372.313 C 68.715 372.856,71.121 374.365,72.160 374.626 C 72.732 374.769,73.200 375.047,73.200 375.243 C 73.200 375.440,73.560 375.600,74.000 375.600 C 74.440 375.600,74.800 375.758,74.800 375.951 C 74.800 376.144,75.835 376.819,77.100 377.451 C 78.365 378.083,79.490 378.690,79.600 378.800 C 79.990 379.190,82.216 380.463,83.300 380.916 C 83.905 381.169,84.400 381.516,84.400 381.688 C 84.400 381.859,84.760 382.000,85.200 382.000 C 85.640 382.000,86.001 382.135,86.003 382.300 C 86.006 382.702,88.319 384.000,89.032 384.000 C 89.345 384.000,89.600 384.180,89.600 384.400 C 89.600 384.620,89.870 384.800,90.200 384.800 C 90.530 384.800,90.800 384.980,90.800 385.200 C 90.800 385.420,91.160 385.600,91.600 385.600 C 92.040 385.600,92.400 385.777,92.400 385.992 C 92.400 386.208,92.850 386.498,93.400 386.636 C 93.950 386.774,94.400 387.047,94.400 387.243 C 94.400 387.440,94.760 387.600,95.200 387.600 C 95.640 387.600,96.000 387.780,96.000 388.000 C 96.000 388.220,96.270 388.400,96.600 388.400 C 96.930 388.400,97.202 388.535,97.204 388.700 C 97.206 388.865,98.016 389.355,99.004 389.790 C 99.992 390.224,100.800 390.682,100.800 390.808 C 100.800 390.933,101.610 391.370,102.600 391.778 C 103.590 392.187,104.400 392.673,104.400 392.860 C 104.400 393.047,104.670 393.200,105.000 393.200 C 105.330 393.200,105.600 393.380,105.600 393.600 C 105.600 393.820,105.960 394.000,106.400 394.000 C 106.840 394.000,107.200 394.141,107.200 394.312 C 107.200 394.484,107.695 394.831,108.300 395.084 C 109.566 395.613,111.704 396.874,112.004 397.268 C 112.116 397.416,112.746 397.670,113.404 397.832 C 114.062 397.995,114.870 398.423,115.200 398.784 C 115.825 399.468,118.420 400.800,119.127 400.800 C 119.351 400.800,119.593 400.935,119.667 401.100 C 119.835 401.479,121.859 402.714,123.300 403.316 C 123.905 403.569,124.400 403.916,124.400 404.088 C 124.400 404.259,124.760 404.400,125.200 404.400 C 125.640 404.400,126.001 404.535,126.003 404.700 C 126.006 405.102,128.319 406.400,129.032 406.400 C 129.345 406.400,129.600 406.580,129.600 406.800 C 129.600 407.020,129.870 407.200,130.200 407.200 C 130.530 407.200,130.800 407.380,130.800 407.600 C 130.800 407.820,131.160 408.000,131.600 408.000 C 132.040 408.000,132.400 408.177,132.400 408.392 C 132.400 408.608,132.850 408.898,133.400 409.036 C 133.950 409.174,134.400 409.447,134.400 409.643 C 134.400 409.840,134.760 410.000,135.200 410.000 C 135.640 410.000,136.000 410.180,136.000 410.400 C 136.000 410.620,136.270 410.800,136.600 410.800 C 136.930 410.800,137.200 410.980,137.200 411.200 C 137.200 411.420,137.566 411.600,138.013 411.600 C 138.459 411.600,138.929 411.870,139.055 412.200 C 139.182 412.530,139.626 412.800,140.043 412.800 C 140.459 412.800,140.800 412.980,140.800 413.200 C 140.800 413.420,141.070 413.600,141.400 413.600 C 141.730 413.600,142.000 413.780,142.000 414.000 C 142.000 414.220,142.347 414.400,142.771 414.400 C 143.196 414.400,143.813 414.670,144.143 415.000 C 144.473 415.330,144.936 415.600,145.171 415.600 C 145.407 415.600,145.600 415.780,145.600 416.000 C 145.600 416.220,145.960 416.400,146.400 416.400 C 146.840 416.400,147.200 416.566,147.200 416.768 C 147.200 416.971,147.721 417.251,148.359 417.391 C 148.996 417.531,149.834 417.995,150.221 418.423 C 150.607 418.850,151.166 419.200,151.462 419.200 C 151.758 419.200,152.000 419.366,152.000 419.568 C 152.000 419.771,152.516 420.050,153.146 420.188 C 153.776 420.327,154.669 420.791,155.129 421.220 C 155.590 421.649,156.154 422.000,156.383 422.000 C 156.612 422.000,156.800 422.180,156.800 422.400 C 156.800 422.620,157.080 422.800,157.423 422.800 C 158.026 422.800,161.594 424.628,162.000 425.145 C 162.357 425.599,164.848 426.800,165.432 426.800 C 165.745 426.800,166.000 426.958,166.000 427.151 C 166.000 427.344,167.035 428.019,168.300 428.651 C 169.565 429.283,170.660 429.935,170.733 430.100 C 170.807 430.265,171.212 430.400,171.633 430.400 C 172.055 430.400,172.400 430.559,172.400 430.752 C 172.400 430.946,173.435 431.621,174.700 432.252 C 175.965 432.884,177.060 433.535,177.133 433.700 C 177.207 433.865,177.500 434.000,177.784 434.000 C 178.069 434.000,178.526 434.270,178.800 434.600 C 179.074 434.930,179.636 435.200,180.049 435.200 C 180.462 435.200,180.800 435.380,180.800 435.600 C 180.800 435.820,181.070 436.000,181.400 436.000 C 181.730 436.000,182.000 436.180,182.000 436.400 C 182.000 436.620,182.360 436.800,182.800 436.800 C 183.240 436.800,183.600 436.977,183.600 437.192 C 183.600 437.408,184.050 437.698,184.600 437.836 C 185.150 437.974,185.600 438.247,185.600 438.443 C 185.600 438.640,185.960 438.800,186.400 438.800 C 186.840 438.800,187.200 438.980,187.200 439.200 C 187.200 439.420,187.470 439.600,187.800 439.600 C 188.130 439.600,188.400 439.780,188.400 440.000 C 188.400 440.220,188.715 440.401,189.100 440.402 C 189.485 440.404,190.340 440.716,191.000 441.096 C 192.787 442.124,207.213 442.124,209.000 441.096 C 209.660 440.716,210.515 440.404,210.900 440.402 C 211.285 440.401,211.600 440.220,211.600 440.000 C 211.600 439.780,211.870 439.600,212.200 439.600 C 212.530 439.600,212.800 439.420,212.800 439.200 C 212.800 438.980,213.160 438.800,213.600 438.800 C 214.040 438.800,214.400 438.640,214.400 438.443 C 214.400 438.247,214.850 437.974,215.400 437.836 C 215.950 437.698,216.400 437.408,216.400 437.192 C 216.400 436.977,216.760 436.800,217.200 436.800 C 217.640 436.800,218.000 436.620,218.000 436.400 C 218.000 436.180,218.270 436.000,218.600 436.000 C 218.930 436.000,219.200 435.820,219.200 435.600 C 219.200 435.380,219.476 435.200,219.814 435.200 C 220.372 435.200,222.312 434.152,222.800 433.587 C 222.910 433.460,223.810 432.966,224.800 432.490 C 226.639 431.605,228.841 430.359,229.200 430.000 C 229.310 429.890,230.435 429.283,231.700 428.651 C 232.965 428.019,234.000 427.344,234.000 427.151 C 234.000 426.958,234.255 426.800,234.568 426.800 C 235.152 426.800,237.643 425.599,238.000 425.145 C 238.406 424.628,241.974 422.800,242.577 422.800 C 242.920 422.800,243.200 422.620,243.200 422.400 C 243.200 422.180,243.388 422.000,243.617 422.000 C 243.846 422.000,244.404 421.655,244.856 421.233 C 245.309 420.812,246.154 420.348,246.736 420.202 C 247.317 420.056,247.884 419.816,247.996 419.668 C 248.296 419.274,250.434 418.013,251.700 417.484 C 252.305 417.231,252.800 416.884,252.800 416.712 C 252.800 416.541,253.160 416.400,253.600 416.400 C 254.040 416.400,254.400 416.220,254.400 416.000 C 254.400 415.780,254.593 415.600,254.829 415.600 C 255.064 415.600,255.527 415.330,255.857 415.000 C 256.187 414.670,256.804 414.400,257.229 414.400 C 257.653 414.400,258.000 414.220,258.000 414.000 C 258.000 413.780,258.270 413.600,258.600 413.600 C 258.930 413.600,259.200 413.420,259.200 413.200 C 259.200 412.980,259.560 412.800,260.000 412.800 C 260.440 412.800,260.800 412.640,260.800 412.443 C 260.800 412.247,261.250 411.974,261.800 411.836 C 262.350 411.698,262.800 411.408,262.800 411.192 C 262.800 410.977,263.070 410.800,263.400 410.800 C 263.730 410.800,264.000 410.620,264.000 410.400 C 264.000 410.180,264.360 410.000,264.800 410.000 C 265.240 410.000,265.602 409.865,265.604 409.700 C 265.606 409.535,266.416 409.045,267.404 408.610 C 268.392 408.176,269.200 407.681,269.200 407.510 C 269.200 407.340,269.470 407.200,269.800 407.200 C 270.130 407.200,270.400 407.043,270.400 406.850 C 270.400 406.658,270.895 406.400,271.500 406.277 C 272.105 406.155,272.997 405.683,273.483 405.227 C 273.969 404.772,274.644 404.400,274.983 404.400 C 275.322 404.400,275.600 404.240,275.600 404.043 C 275.600 403.847,276.009 403.584,276.508 403.459 C 277.007 403.334,277.779 402.909,278.224 402.515 C 278.668 402.122,279.294 401.741,279.616 401.670 C 279.937 401.598,280.260 401.373,280.333 401.170 C 280.407 400.966,280.649 400.800,280.873 400.800 C 281.580 400.800,284.175 399.468,284.800 398.784 C 285.130 398.423,285.938 397.995,286.596 397.832 C 287.254 397.670,287.884 397.416,287.996 397.268 C 288.296 396.874,290.434 395.613,291.700 395.084 C 292.305 394.831,292.800 394.484,292.800 394.312 C 292.800 394.141,293.160 394.000,293.600 394.000 C 294.040 394.000,294.400 393.820,294.400 393.600 C 294.400 393.380,294.670 393.200,295.000 393.200 C 295.330 393.200,295.600 393.047,295.600 392.860 C 295.600 392.673,296.410 392.187,297.400 391.778 C 298.390 391.370,299.200 390.893,299.200 390.718 C 299.200 390.543,299.560 390.400,300.000 390.400 C 300.440 390.400,300.800 390.240,300.800 390.043 C 300.800 389.847,301.250 389.574,301.800 389.436 C 302.350 389.298,302.800 389.008,302.800 388.792 C 302.800 388.577,303.070 388.400,303.400 388.400 C 303.730 388.400,304.000 388.220,304.000 388.000 C 304.000 387.780,304.360 387.600,304.800 387.600 C 305.240 387.600,305.600 387.440,305.600 387.243 C 305.600 387.047,306.050 386.774,306.600 386.636 C 307.150 386.498,307.600 386.208,307.600 385.992 C 307.600 385.777,307.960 385.600,308.400 385.600 C 308.840 385.600,309.200 385.420,309.200 385.200 C 309.200 384.980,309.470 384.800,309.800 384.800 C 310.130 384.800,310.400 384.620,310.400 384.400 C 310.400 384.180,310.655 384.000,310.968 384.000 C 311.681 384.000,313.994 382.702,313.997 382.300 C 313.999 382.135,314.360 382.000,314.800 382.000 C 315.240 382.000,315.600 381.840,315.600 381.643 C 315.600 381.447,316.009 381.184,316.508 381.059 C 317.007 380.934,317.810 380.464,318.291 380.015 C 318.773 379.567,319.429 379.200,319.750 379.200 C 320.071 379.200,320.393 379.065,320.467 378.900 C 320.540 378.735,321.635 378.083,322.900 377.451 C 324.165 376.819,325.200 376.144,325.200 375.951 C 325.200 375.758,325.560 375.600,326.000 375.600 C 326.440 375.600,326.800 375.420,326.800 375.200 C 326.800 374.980,326.998 374.800,327.240 374.800 C 328.162 374.800,330.381 373.493,330.135 373.094 C 329.991 372.862,330.067 372.794,330.306 372.942 C 330.542 373.088,331.010 372.933,331.345 372.598 C 331.680 372.263,332.504 371.879,333.177 371.745 C 333.850 371.610,334.400 371.343,334.400 371.150 C 334.400 370.958,334.588 370.800,334.817 370.800 C 335.046 370.800,335.604 370.455,336.056 370.033 C 336.509 369.612,337.354 369.148,337.936 369.002 C 338.517 368.856,339.084 368.616,339.196 368.468 C 339.496 368.074,341.634 366.813,342.900 366.284 C 343.505 366.031,344.000 365.684,344.000 365.512 C 344.000 365.341,344.360 365.200,344.800 365.200 C 345.240 365.200,345.600 365.020,345.600 364.800 C 345.600 364.580,345.793 364.400,346.029 364.400 C 346.264 364.400,346.727 364.130,347.057 363.800 C 347.387 363.470,348.004 363.200,348.429 363.200 C 348.853 363.200,349.200 363.020,349.200 362.800 C 349.200 362.580,349.470 362.400,349.800 362.400 C 350.130 362.400,350.400 362.220,350.400 362.000 C 350.400 361.780,350.760 361.600,351.200 361.600 C 351.640 361.600,352.000 361.440,352.000 361.243 C 352.000 361.047,352.450 360.774,353.000 360.636 C 353.550 360.498,354.000 360.208,354.000 359.992 C 354.000 359.777,354.360 359.600,354.800 359.600 C 355.240 359.600,355.600 359.420,355.600 359.200 C 355.600 358.980,355.870 358.800,356.200 358.800 C 356.530 358.800,356.800 358.640,356.800 358.443 C 356.800 358.247,357.250 357.974,357.800 357.836 C 358.350 357.698,358.800 357.408,358.800 357.192 C 358.800 356.977,359.160 356.800,359.600 356.800 C 360.040 356.800,360.400 356.620,360.400 356.400 C 360.400 356.180,360.670 356.000,361.000 356.000 C 361.330 356.000,361.600 355.843,361.600 355.650 C 361.600 355.458,362.095 355.200,362.700 355.077 C 363.305 354.955,364.197 354.483,364.683 354.027 C 365.169 353.572,365.844 353.200,366.183 353.200 C 366.522 353.200,366.800 353.040,366.800 352.843 C 366.800 352.647,367.284 352.365,367.876 352.217 C 368.974 351.941,371.293 350.482,371.533 349.914 C 371.607 349.742,371.849 349.600,372.073 349.600 C 372.736 349.600,375.341 348.281,376.154 347.533 C 376.569 347.152,377.424 346.727,378.054 346.588 C 378.684 346.450,379.200 346.215,379.200 346.066 C 379.200 345.917,379.785 345.537,380.500 345.222 C 381.215 344.907,382.038 344.413,382.329 344.125 C 382.619 343.836,383.114 343.600,383.429 343.600 C 383.743 343.600,384.000 343.420,384.000 343.200 C 384.000 342.980,384.360 342.800,384.800 342.800 C 385.240 342.800,385.600 342.620,385.600 342.400 C 385.600 342.180,385.855 342.000,386.167 342.000 C 386.478 342.000,386.793 341.865,386.867 341.700 C 386.940 341.535,387.718 341.040,388.596 340.600 C 389.473 340.160,390.715 339.305,391.355 338.700 C 391.995 338.095,392.672 337.600,392.860 337.600 C 393.309 337.600,396.000 334.741,396.000 334.264 C 396.000 334.060,396.324 333.603,396.720 333.247 C 397.540 332.511,398.800 329.982,398.800 329.073 C 398.800 328.739,399.025 328.392,399.300 328.300 C 399.990 328.070,400.040 113.723,399.350 113.285 C 399.103 113.128,398.777 112.430,398.626 111.734 C 398.475 111.037,397.867 109.957,397.276 109.334 C 396.684 108.710,396.004 107.754,395.764 107.209 C 395.524 106.664,395.254 106.401,395.164 106.625 " stroke="none" fill="#044e8e" fill-rule="evenodd"></path><path id="path3" d="M185.200 74.035 C 179.384 74.661,172.045 75.821,171.696 76.171 C 171.317 76.549,172.817 76.434,176.200 75.823 C 181.572 74.854,185.917 74.376,192.400 74.039 L 198.600 73.718 193.400 73.715 C 190.540 73.713,186.850 73.857,185.200 74.035 M207.600 74.039 C 213.628 74.352,218.511 74.861,222.600 75.603 C 226.303 76.275,228.602 76.505,228.286 76.171 C 228.114 75.988,226.944 75.690,225.686 75.509 C 224.429 75.327,222.230 75.008,220.800 74.800 C 215.248 73.992,210.414 73.623,206.000 73.669 L 201.400 73.718 207.600 74.039 M166.400 77.089 C 164.970 77.419,163.440 77.835,163.000 78.013 C 162.560 78.192,161.684 78.451,161.053 78.588 C 160.422 78.726,160.001 78.934,160.117 79.050 C 160.233 79.166,161.379 78.984,162.664 78.644 C 163.949 78.305,166.440 77.677,168.200 77.249 C 169.960 76.821,170.860 76.476,170.200 76.481 C 169.540 76.486,167.830 76.760,166.400 77.089 M230.200 76.859 C 231.853 77.247,232.891 77.508,237.026 78.574 C 239.878 79.310,240.128 79.330,239.800 78.800 C 239.664 78.580,239.111 78.400,238.571 78.400 C 238.031 78.400,237.277 78.236,236.895 78.036 C 235.925 77.528,230.683 76.391,229.543 76.441 C 228.928 76.468,229.157 76.613,230.200 76.859 M154.000 80.630 C 151.690 81.399,149.080 82.313,148.200 82.661 C 147.320 83.010,146.240 83.436,145.800 83.606 C 145.360 83.777,144.010 84.358,142.800 84.896 C 141.590 85.434,139.790 86.217,138.800 86.637 C 136.120 87.773,127.294 92.306,126.800 92.800 C 126.690 92.910,125.970 93.340,125.200 93.755 C 123.304 94.778,111.600 102.570,110.600 103.475 C 110.159 103.874,109.079 104.730,108.200 105.379 C 107.320 106.027,106.510 106.658,106.400 106.781 C 106.290 106.904,105.030 107.985,103.600 109.183 C 96.167 115.409,85.350 127.287,79.543 135.600 C 74.648 142.607,67.649 154.582,68.154 155.087 C 68.279 155.212,68.510 154.974,68.667 154.557 C 68.824 154.141,70.384 151.280,72.132 148.200 C 83.874 127.519,100.132 110.475,121.353 96.600 C 122.867 95.610,124.157 94.800,124.220 94.800 C 124.283 94.800,125.654 94.023,127.267 93.074 C 131.084 90.827,143.456 84.800,144.251 84.800 C 144.377 84.800,145.046 84.549,145.740 84.243 C 147.898 83.290,152.071 81.783,155.200 80.828 C 156.850 80.323,158.560 79.763,159.000 79.583 L 159.800 79.254 159.000 79.244 C 158.560 79.238,156.310 79.862,154.000 80.630 M245.600 81.022 C 248.570 82.000,251.360 82.963,251.800 83.163 C 252.240 83.362,253.357 83.808,254.283 84.153 C 258.361 85.673,268.500 90.563,272.612 92.994 C 274.292 93.987,275.737 94.800,275.824 94.800 C 276.015 94.800,280.394 97.676,284.174 100.285 C 299.307 110.729,315.597 127.931,325.322 143.737 L 326.529 145.699 325.565 146.476 C 324.696 147.177,324.687 147.211,325.478 146.825 C 327.324 145.923,327.371 146.052,322.475 138.649 C 315.819 128.583,305.036 116.395,296.400 109.174 C 294.970 107.978,293.710 106.900,293.600 106.779 C 293.490 106.657,292.680 106.028,291.800 105.381 C 290.920 104.734,290.110 104.086,290.000 103.941 C 289.890 103.796,287.280 101.952,284.200 99.844 C 281.120 97.735,278.415 95.872,278.188 95.705 C 277.807 95.423,276.115 94.457,274.200 93.429 C 273.760 93.193,273.310 92.910,273.200 92.800 C 272.626 92.226,262.901 87.233,260.517 86.287 C 259.591 85.920,257.971 85.235,256.917 84.764 C 253.639 83.299,252.682 82.919,250.000 82.020 C 248.570 81.540,247.040 80.999,246.600 80.817 C 245.092 80.195,241.508 79.200,240.854 79.222 C 240.494 79.234,242.630 80.044,245.600 81.022 M191.800 147.625 C 190.700 147.806,188.900 148.078,187.800 148.230 C 186.700 148.381,186.017 148.584,186.282 148.680 C 186.547 148.776,189.075 148.572,191.898 148.227 C 194.722 147.882,198.368 147.600,200.000 147.600 C 201.632 147.600,205.278 147.882,208.102 148.227 C 210.925 148.572,213.453 148.776,213.718 148.680 C 213.983 148.584,213.300 148.383,212.200 148.234 C 211.100 148.085,209.105 147.791,207.767 147.581 C 204.880 147.129,194.641 147.156,191.800 147.625 M323.100 147.829 C 321.605 148.640,321.696 148.978,323.200 148.200 C 323.860 147.859,324.400 147.494,324.400 147.390 C 324.400 147.132,324.357 147.147,323.100 147.829 M181.800 149.427 C 162.309 154.997,148.352 165.159,137.530 181.657 C 133.964 187.093,129.820 196.944,128.265 203.685 C 127.013 209.109,126.778 210.679,126.612 214.764 C 126.482 217.976,126.523 218.516,126.785 217.000 C 126.975 215.900,127.146 214.031,127.165 212.846 C 127.184 211.662,127.365 210.042,127.567 209.246 C 127.769 208.451,128.235 206.360,128.602 204.600 C 129.256 201.466,129.807 199.400,130.415 197.800 C 130.582 197.360,130.944 196.370,131.220 195.600 C 132.431 192.210,135.607 185.486,136.100 185.267 C 136.265 185.193,136.400 184.951,136.400 184.728 C 136.400 183.966,140.650 177.805,143.663 174.200 C 150.373 166.170,157.707 160.331,166.800 155.779 C 172.465 152.944,173.265 152.606,177.200 151.397 C 179.070 150.823,181.013 150.183,181.519 149.976 C 182.024 149.769,182.924 149.597,183.519 149.594 C 184.113 149.591,184.870 149.413,185.200 149.200 C 186.113 148.610,184.217 148.736,181.800 149.427 M214.800 149.200 C 215.130 149.413,215.812 149.591,216.316 149.594 C 217.567 149.602,224.465 151.731,227.600 153.076 C 241.518 159.048,252.763 168.165,260.790 179.985 C 262.448 182.427,262.914 182.717,264.000 181.982 C 264.460 181.670,264.367 181.624,263.600 181.782 C 262.709 181.965,262.305 181.563,259.902 178.094 C 251.255 165.616,237.105 155.235,222.600 150.727 C 217.304 149.081,213.447 148.326,214.800 149.200 M66.914 156.700 C 66.649 157.305,66.043 158.700,65.567 159.800 C 65.091 160.900,64.381 162.520,63.990 163.400 C 62.827 166.019,60.920 171.169,59.771 174.800 C 59.179 176.670,58.558 178.560,58.391 179.000 C 57.638 180.982,56.803 184.168,56.832 184.946 C 56.869 185.945,56.946 185.738,58.389 180.800 C 60.862 172.332,65.015 161.438,67.409 157.138 C 68.073 155.945,68.138 155.600,67.698 155.600 C 67.531 155.600,67.179 156.095,66.914 156.700 M303.500 159.029 C 302.005 159.840,302.096 160.178,303.600 159.400 C 304.260 159.059,304.800 158.694,304.800 158.590 C 304.800 158.332,304.757 158.347,303.500 159.029 M291.300 166.012 C 290.145 166.674,289.200 167.310,289.200 167.425 C 289.200 167.643,292.721 165.714,293.380 165.134 C 294.081 164.518,293.415 164.799,291.300 166.012 M283.900 170.229 C 282.405 171.040,282.496 171.378,284.000 170.600 C 284.660 170.259,285.200 169.894,285.200 169.790 C 285.200 169.532,285.157 169.547,283.900 170.229 M276.696 174.358 C 274.260 175.787,273.719 176.344,275.800 175.280 C 277.345 174.491,279.210 173.218,278.800 173.233 C 278.690 173.237,277.743 173.743,276.696 174.358 M271.700 177.212 C 270.545 177.874,269.600 178.510,269.600 178.625 C 269.600 178.843,273.121 176.914,273.780 176.334 C 274.481 175.718,273.815 175.999,271.700 177.212 M56.249 186.615 C 56.112 186.973,56.000 187.780,56.000 188.409 C 56.000 189.038,55.820 189.664,55.600 189.800 C 55.380 189.936,55.200 190.655,55.200 191.398 C 55.200 192.140,55.033 193.187,54.829 193.723 C 54.625 194.259,54.363 196.026,54.246 197.649 C 54.036 200.570,54.038 200.578,54.441 198.400 C 54.665 197.190,55.303 193.981,55.858 191.268 C 56.765 186.846,56.934 184.832,56.249 186.615 M53.471 202.400 C 52.750 207.956,52.619 210.827,52.623 221.000 C 52.627 231.188,53.154 240.487,53.761 241.095 C 54.112 241.446,54.042 240.031,53.396 233.800 C 52.635 226.446,52.647 215.675,53.426 207.850 C 53.997 202.120,54.030 198.099,53.471 202.400 M126.612 227.236 C 126.778 231.321,127.013 232.891,128.265 238.315 C 129.548 243.875,134.772 257.270,134.793 255.054 C 134.797 254.644,134.370 253.474,133.843 252.454 C 132.805 250.441,132.002 248.588,131.220 246.400 C 130.944 245.630,130.582 244.640,130.415 244.200 C 129.807 242.600,129.256 240.534,128.602 237.400 C 128.235 235.640,127.769 233.549,127.567 232.754 C 127.365 231.958,127.184 230.338,127.165 229.154 C 127.146 227.969,126.975 226.100,126.785 225.000 C 126.523 223.484,126.482 224.024,126.612 227.236 M54.050 242.600 C 54.007 243.744,54.448 246.603,55.237 250.300 C 55.437 251.235,55.752 252.812,55.937 253.804 C 56.123 254.796,56.418 255.741,56.594 255.904 C 56.963 256.246,56.759 254.888,55.645 249.600 C 55.205 247.510,54.676 244.810,54.470 243.600 C 54.229 242.183,54.079 241.827,54.050 242.600 M56.837 257.054 C 56.803 257.831,57.632 261.001,58.391 263.000 C 58.558 263.440,59.179 265.330,59.771 267.200 C 60.920 270.831,62.827 275.981,63.990 278.600 C 64.381 279.480,65.091 281.100,65.567 282.200 C 66.043 283.300,66.649 284.695,66.914 285.300 C 67.179 285.905,67.531 286.400,67.698 286.400 C 68.138 286.400,68.073 286.055,67.409 284.862 C 64.808 280.190,61.052 270.157,57.653 258.800 C 57.225 257.370,56.858 256.584,56.837 257.054 M263.158 259.112 C 262.725 259.686,262.728 259.721,263.178 259.322 C 263.601 258.946,264.048 259.012,265.258 259.630 C 266.106 260.062,266.800 260.326,266.800 260.216 C 266.800 259.419,263.648 258.463,263.158 259.112 M272.400 263.384 C 272.400 263.494,273.120 263.951,274.000 264.400 C 274.880 264.849,275.600 265.126,275.600 265.016 C 275.600 264.906,274.880 264.449,274.000 264.000 C 273.120 263.551,272.400 263.274,272.400 263.384 M278.400 266.764 C 278.950 267.214,279.580 267.583,279.800 267.585 C 280.228 267.588,279.505 267.034,278.200 266.360 C 277.669 266.085,277.736 266.221,278.400 266.764 M142.589 267.600 C 144.209 269.640,146.853 272.482,146.992 272.330 C 147.058 272.259,145.844 270.850,144.294 269.200 C 142.745 267.550,141.978 266.830,142.589 267.600 M255.968 268.900 C 254.784 270.275,254.132 271.148,254.520 270.841 C 255.334 270.194,258.562 266.400,258.297 266.400 C 258.200 266.400,257.151 267.525,255.968 268.900 M149.200 274.575 C 149.200 274.818,151.659 277.102,153.365 278.444 C 155.285 279.954,154.419 278.958,151.800 276.645 C 150.370 275.382,149.200 274.450,149.200 274.575 M248.000 276.894 C 246.570 278.220,246.030 278.808,246.800 278.200 C 249.126 276.364,250.892 274.759,250.742 274.617 C 250.664 274.543,249.430 275.568,248.000 276.894 M292.800 274.579 C 292.800 274.689,293.340 275.059,294.000 275.400 C 294.660 275.741,295.200 275.931,295.200 275.821 C 295.200 275.711,294.660 275.341,294.000 275.000 C 293.340 274.659,292.800 274.469,292.800 274.579 M154.998 279.596 C 155.231 279.973,159.023 282.635,160.400 283.389 C 161.593 284.042,160.188 282.925,157.473 281.061 C 155.973 280.031,154.859 279.372,154.998 279.596 M242.109 281.302 C 240.519 282.429,239.283 283.416,239.362 283.495 C 239.538 283.672,244.693 280.097,245.016 279.575 C 245.365 279.010,245.228 279.091,242.109 281.302 M311.600 284.959 C 311.600 285.251,315.310 287.223,315.501 287.033 C 315.599 286.934,314.762 286.389,313.640 285.820 C 312.518 285.252,311.600 284.864,311.600 284.959 M68.000 287.046 C 68.000 287.554,70.230 291.432,70.964 292.200 C 71.653 292.921,71.646 292.862,70.902 291.600 C 70.447 290.830,69.680 289.435,69.197 288.500 C 68.379 286.916,68.000 286.456,68.000 287.046 M316.000 287.384 C 316.000 287.494,316.720 287.951,317.600 288.400 C 318.480 288.849,319.200 289.126,319.200 289.016 C 319.200 288.906,318.480 288.449,317.600 288.000 C 316.720 287.551,316.000 287.274,316.000 287.384 M319.600 289.384 C 319.600 289.494,320.320 289.951,321.200 290.400 C 322.080 290.849,322.800 291.126,322.800 291.016 C 322.800 290.906,322.080 290.449,321.200 290.000 C 320.320 289.551,319.600 289.274,319.600 289.384 M180.600 292.400 C 180.736 292.620,181.242 292.787,181.724 292.772 C 182.569 292.745,182.571 292.731,181.800 292.400 C 180.699 291.927,180.308 291.927,180.600 292.400 M218.200 292.400 C 217.429 292.731,217.431 292.745,218.276 292.772 C 218.758 292.787,219.264 292.620,219.400 292.400 C 219.692 291.927,219.301 291.927,218.200 292.400 M190.800 294.384 C 191.780 294.714,195.495 294.942,195.167 294.653 C 195.075 294.572,193.830 294.403,192.400 294.277 C 190.770 294.134,190.173 294.174,190.800 294.384 M206.400 294.400 L 204.600 294.680 206.400 294.700 C 207.390 294.711,208.650 294.576,209.200 294.400 L 210.200 294.080 209.200 294.100 C 208.650 294.111,207.390 294.246,206.400 294.400 M76.349 301.000 C 76.565 301.440,77.034 302.160,77.393 302.600 L 78.044 303.400 77.651 302.600 C 77.435 302.160,76.966 301.440,76.607 301.000 L 75.956 300.200 76.349 301.000 M323.353 300.900 C 321.976 303.236,321.886 303.435,322.587 302.600 C 323.400 301.632,324.100 300.400,323.838 300.400 C 323.733 300.400,323.515 300.625,323.353 300.900 M78.863 304.800 C 79.351 305.460,79.817 306.000,79.898 306.000 C 79.979 306.000,79.726 305.460,79.336 304.800 C 78.946 304.140,78.481 303.600,78.302 303.600 C 78.123 303.600,78.375 304.140,78.863 304.800 M321.123 304.300 C 320.418 305.121,319.890 306.000,320.101 306.000 C 320.183 306.000,320.649 305.460,321.137 304.800 C 322.101 303.496,322.092 303.172,321.123 304.300 M81.206 308.148 C 81.951 309.186,82.826 310.253,83.148 310.518 C 83.471 310.783,83.058 310.055,82.230 308.901 C 81.403 307.746,80.529 306.680,80.288 306.531 C 80.047 306.382,80.460 307.110,81.206 308.148 M318.541 307.900 C 317.936 308.725,317.162 309.757,316.821 310.193 C 316.262 310.906,316.262 310.938,316.819 310.511 C 317.529 309.967,320.154 306.400,319.845 306.400 C 319.733 306.400,319.146 307.075,318.541 307.900 M84.783 312.700 C 85.526 313.635,86.206 314.400,86.294 314.400 C 86.577 314.400,84.863 312.149,84.135 311.564 C 83.748 311.254,84.040 311.765,84.783 312.700 M86.811 315.099 C 86.817 315.264,87.942 316.580,89.311 318.023 C 91.712 320.553,91.384 320.068,88.280 316.499 C 87.466 315.563,86.805 314.933,86.811 315.099 M310.473 317.864 C 309.083 319.479,308.030 320.800,308.132 320.800 C 308.423 320.800,313.325 315.188,313.153 315.051 C 313.069 314.983,311.863 316.250,310.473 317.864 M303.479 325.293 C 301.893 326.989,302.371 327.081,304.006 325.394 C 304.749 324.627,305.187 324.021,304.978 324.047 C 304.770 324.074,304.096 324.634,303.479 325.293 M103.200 331.725 C 103.200 331.794,103.785 332.379,104.500 333.025 L 105.800 334.200 104.625 332.900 C 103.530 331.688,103.200 331.416,103.200 331.725 M295.375 332.900 L 294.200 334.200 295.500 333.025 C 296.215 332.379,296.800 331.794,296.800 331.725 C 296.800 331.416,296.470 331.688,295.375 332.900 M106.400 334.533 C 106.400 334.643,107.120 335.303,108.000 336.000 C 108.880 336.697,109.600 337.177,109.600 337.067 C 109.600 336.957,108.880 336.297,108.000 335.600 C 107.120 334.903,106.400 334.423,106.400 334.533 M289.800 337.444 L 288.200 338.876 289.900 337.604 C 291.363 336.510,291.891 335.983,291.500 336.006 C 291.445 336.009,290.680 336.656,289.800 337.444 M120.600 345.007 C 121.040 345.366,121.760 345.835,122.200 346.051 L 123.000 346.444 122.200 345.793 C 121.760 345.434,121.040 344.965,120.600 344.749 L 119.800 344.356 120.600 345.007 M278.500 345.246 C 277.137 346.119,276.695 346.706,277.900 346.043 C 278.818 345.539,280.256 344.427,280.000 344.419 C 279.890 344.416,279.215 344.788,278.500 345.246 M128.000 349.384 C 128.000 349.494,128.720 349.951,129.600 350.400 C 130.480 350.849,131.200 351.126,131.200 351.016 C 131.200 350.906,130.480 350.449,129.600 350.000 C 128.720 349.551,128.000 349.274,128.000 349.384 M270.700 349.829 C 269.205 350.640,269.296 350.978,270.800 350.200 C 271.460 349.859,272.000 349.494,272.000 349.390 C 272.000 349.132,271.957 349.147,270.700 349.829 M142.800 356.733 C 143.130 356.936,143.850 357.224,144.400 357.371 C 145.095 357.557,145.217 357.525,144.800 357.267 C 144.470 357.064,143.750 356.776,143.200 356.629 C 142.505 356.443,142.383 356.475,142.800 356.733 M256.100 356.812 C 254.761 357.351,255.011 357.624,256.400 357.140 C 257.060 356.910,257.600 356.649,257.600 356.561 C 257.600 356.324,257.113 356.405,256.100 356.812 M150.000 359.541 C 150.330 359.734,151.140 360.009,151.800 360.152 C 152.568 360.318,152.784 360.284,152.400 360.059 C 152.070 359.866,151.260 359.591,150.600 359.448 C 149.832 359.282,149.616 359.316,150.000 359.541 M158.800 362.382 C 159.130 362.605,159.745 362.791,160.167 362.794 C 161.190 362.802,160.871 362.573,159.400 362.244 C 158.524 362.048,158.362 362.085,158.800 362.382 M239.656 362.459 C 238.917 362.672,238.387 362.920,238.479 363.012 C 238.681 363.214,241.600 362.437,241.600 362.181 C 241.600 361.946,241.282 361.991,239.656 362.459 M163.000 363.600 C 164.101 364.073,164.492 364.073,164.200 363.600 C 164.064 363.380,163.558 363.213,163.076 363.228 C 162.231 363.255,162.229 363.269,163.000 363.600 M235.800 363.600 C 235.508 364.073,235.899 364.073,237.000 363.600 C 237.771 363.269,237.769 363.255,236.924 363.228 C 236.442 363.213,235.936 363.380,235.800 363.600 M166.600 364.400 C 167.040 364.589,167.670 364.744,168.000 364.744 C 168.378 364.744,168.304 364.617,167.800 364.400 C 167.360 364.211,166.730 364.056,166.400 364.056 C 166.022 364.056,166.096 364.183,166.600 364.400 M232.400 364.400 C 231.605 364.914,232.604 364.914,233.800 364.400 L 234.600 364.056 233.800 364.034 C 233.360 364.022,232.730 364.187,232.400 364.400 M169.800 365.163 C 170.240 365.338,171.500 365.588,172.600 365.718 C 173.737 365.853,174.255 365.818,173.800 365.637 C 173.360 365.462,172.100 365.212,171.000 365.082 C 169.863 364.947,169.345 364.982,169.800 365.163 M228.400 365.200 C 227.033 365.488,227.028 365.495,228.200 365.519 C 228.860 365.533,229.760 365.389,230.200 365.200 C 231.162 364.787,230.364 364.787,228.400 365.200 M175.633 366.147 C 175.725 366.228,176.520 366.404,177.400 366.538 C 178.515 366.707,178.758 366.671,178.200 366.419 C 177.432 366.071,175.290 365.844,175.633 366.147 M221.800 366.410 C 221.266 366.647,221.598 366.686,222.800 366.527 C 223.790 366.396,224.675 366.224,224.767 366.144 C 225.114 365.843,222.564 366.072,221.800 366.410 M182.600 367.223 C 184.626 367.642,186.263 367.623,184.600 367.200 C 183.940 367.032,182.860 366.894,182.200 366.893 C 181.191 366.892,181.255 366.945,182.600 367.223 M215.400 367.200 C 213.737 367.623,215.374 367.642,217.400 367.223 C 218.745 366.945,218.809 366.892,217.800 366.893 C 217.140 366.894,216.060 367.032,215.400 367.200 M190.105 367.887 C 190.714 367.979,191.614 367.977,192.105 367.882 C 192.597 367.787,192.100 367.711,191.000 367.714 C 189.900 367.717,189.497 367.795,190.105 367.887 M208.105 367.887 C 208.714 367.979,209.614 367.977,210.105 367.882 C 210.597 367.787,210.100 367.711,209.000 367.714 C 207.900 367.717,207.497 367.795,208.105 367.887 M196.700 368.298 C 198.515 368.372,201.485 368.372,203.300 368.298 C 205.115 368.223,203.630 368.163,200.000 368.163 C 196.370 368.163,194.885 368.223,196.700 368.298 " stroke="none" fill="#99bde0" fill-rule="evenodd"></path><path id="path4" d="M194.400 0.400 C 195.173 0.899,197.227 0.899,198.000 0.400 C 198.424 0.126,197.895 0.012,196.200 0.012 C 194.505 0.012,193.976 0.126,194.400 0.400 M201.200 0.362 C 201.530 0.596,202.734 0.791,203.876 0.794 C 205.018 0.797,206.051 0.960,206.172 1.155 C 206.293 1.350,207.037 1.630,207.826 1.778 C 208.615 1.926,209.922 2.425,210.730 2.886 C 213.419 4.421,214.196 4.795,214.700 4.798 C 214.975 4.799,215.200 4.980,215.200 5.200 C 215.200 5.420,215.470 5.600,215.800 5.600 C 216.130 5.600,216.400 5.766,216.400 5.968 C 216.400 6.171,216.940 6.455,217.600 6.600 C 218.260 6.745,218.800 7.029,218.800 7.232 C 218.800 7.434,219.160 7.600,219.600 7.600 C 220.040 7.600,220.400 7.799,220.400 8.043 C 220.400 8.286,220.655 8.388,220.967 8.268 C 221.279 8.148,221.633 8.309,221.755 8.626 C 221.876 8.942,222.656 9.516,223.488 9.901 C 224.319 10.285,225.090 10.690,225.200 10.800 C 225.430 11.030,227.951 12.424,230.000 13.454 C 230.770 13.842,231.515 14.326,231.655 14.530 C 231.940 14.945,232.800 14.549,232.800 14.003 C 232.800 13.642,231.229 12.981,230.700 13.121 C 230.535 13.164,230.400 13.020,230.400 12.800 C 230.400 12.580,230.207 12.400,229.971 12.400 C 229.736 12.400,229.271 12.128,228.939 11.796 C 228.607 11.464,228.170 11.295,227.968 11.420 C 227.765 11.545,227.600 11.457,227.600 11.224 C 227.600 10.991,227.407 10.800,227.171 10.800 C 226.936 10.800,226.473 10.530,226.143 10.200 C 225.813 9.870,225.196 9.600,224.771 9.600 C 224.347 9.600,224.000 9.420,224.000 9.200 C 224.000 8.980,223.730 8.800,223.400 8.800 C 223.070 8.800,222.800 8.640,222.800 8.443 C 222.800 8.247,222.350 7.974,221.800 7.836 C 221.250 7.698,220.800 7.408,220.800 7.192 C 220.800 6.977,220.455 6.800,220.033 6.800 C 219.612 6.800,219.207 6.665,219.133 6.500 C 218.965 6.121,216.941 4.886,215.500 4.284 C 214.895 4.031,214.400 3.684,214.400 3.512 C 214.400 3.341,214.040 3.200,213.600 3.200 C 213.160 3.200,212.800 3.062,212.800 2.894 C 212.800 2.531,209.839 1.200,209.031 1.200 C 208.720 1.200,208.407 1.029,208.333 0.820 C 208.260 0.611,206.490 0.327,204.400 0.188 C 201.666 0.008,200.768 0.056,201.200 0.362 M192.000 0.800 C 192.000 1.020,192.270 1.200,192.600 1.200 C 192.930 1.200,193.200 1.020,193.200 0.800 C 193.200 0.580,192.930 0.400,192.600 0.400 C 192.270 0.400,192.000 0.580,192.000 0.800 M232.877 14.830 C 232.956 15.066,233.191 15.260,233.400 15.260 C 233.609 15.260,233.845 15.066,233.923 14.830 C 234.002 14.594,233.767 14.400,233.400 14.400 C 233.033 14.400,232.798 14.594,232.877 14.830 M234.000 15.600 C 234.000 15.820,234.270 16.000,234.600 16.000 C 234.930 16.000,235.200 16.159,235.200 16.353 C 235.200 16.649,236.204 17.132,237.267 17.346 C 237.413 17.376,237.668 17.535,237.833 17.700 C 238.221 18.088,238.800 18.086,238.800 17.697 C 238.800 17.275,235.296 15.200,234.584 15.200 C 234.263 15.200,234.000 15.380,234.000 15.600 M239.200 18.400 C 239.200 18.620,239.470 18.800,239.800 18.800 C 240.130 18.800,240.400 18.620,240.400 18.400 C 240.400 18.180,240.130 18.000,239.800 18.000 C 239.470 18.000,239.200 18.180,239.200 18.400 M240.800 19.146 C 240.800 19.366,241.205 19.672,241.700 19.827 C 242.195 19.981,242.717 20.290,242.860 20.512 C 243.010 20.746,243.432 20.781,243.860 20.596 C 244.563 20.292,244.560 20.267,243.800 20.092 C 243.360 19.990,242.910 19.773,242.800 19.608 C 242.461 19.099,240.800 18.716,240.800 19.146 M244.000 21.200 C 244.000 21.706,244.817 21.706,245.600 21.200 C 246.068 20.898,245.957 20.811,245.100 20.806 C 244.495 20.803,244.000 20.980,244.000 21.200 M245.600 21.880 C 245.600 22.081,246.365 22.580,247.300 22.987 C 248.235 23.395,249.125 23.920,249.278 24.153 C 249.431 24.386,249.682 24.451,249.835 24.298 C 250.199 23.934,249.252 22.800,248.584 22.800 C 248.300 22.800,248.007 22.633,247.933 22.430 C 247.752 21.927,245.600 21.419,245.600 21.880 M250.484 24.200 C 250.554 24.640,250.878 25.000,251.205 25.000 C 251.532 25.000,252.035 25.315,252.323 25.700 C 252.610 26.085,253.105 26.400,253.423 26.400 C 253.740 26.400,254.000 26.580,254.000 26.800 C 254.000 27.020,254.360 27.200,254.800 27.200 C 255.240 27.200,255.600 27.391,255.600 27.624 C 255.600 27.857,255.793 27.928,256.029 27.782 C 256.293 27.619,256.100 27.271,255.529 26.881 C 255.018 26.532,254.510 26.144,254.400 26.019 C 254.290 25.894,253.480 25.434,252.600 24.996 C 251.720 24.558,250.855 24.020,250.678 23.800 C 250.497 23.574,250.412 23.748,250.484 24.200 M257.017 27.972 C 256.744 28.414,257.375 28.892,257.744 28.522 C 258.125 28.142,258.054 27.600,257.624 27.600 C 257.417 27.600,257.144 27.768,257.017 27.972 M258.400 28.629 C 258.400 29.007,259.514 30.000,259.938 30.000 C 260.155 30.000,260.414 30.225,260.512 30.500 C 260.610 30.775,260.834 30.866,261.010 30.702 C 261.186 30.538,260.805 29.953,260.165 29.403 C 259.039 28.434,258.400 28.154,258.400 28.629 M264.800 32.252 C 264.800 32.697,265.921 33.546,266.174 33.293 C 266.322 33.144,266.606 33.286,266.805 33.608 C 267.093 34.074,267.268 34.092,267.663 33.697 C 268.059 33.301,268.042 33.199,267.580 33.198 C 267.261 33.196,266.505 32.937,265.900 32.621 C 265.295 32.306,264.800 32.140,264.800 32.252 M268.178 34.435 C 268.054 34.636,268.308 34.800,268.743 34.800 C 269.178 34.800,269.616 35.025,269.717 35.300 C 269.844 35.648,270.035 35.674,270.344 35.386 C 270.662 35.090,270.448 34.842,269.596 34.521 C 268.898 34.257,268.310 34.222,268.178 34.435 M274.400 38.000 C 274.400 38.220,274.659 38.400,274.976 38.400 C 275.293 38.400,275.664 38.220,275.800 38.000 C 275.936 37.780,275.677 37.600,275.224 37.600 C 274.771 37.600,274.400 37.780,274.400 38.000 M392.813 104.900 C 392.820 105.175,393.087 105.745,393.406 106.167 C 394.082 107.060,394.065 107.076,390.200 109.207 C 385.643 111.720,384.998 112.086,384.600 112.389 C 384.380 112.556,383.390 113.145,382.400 113.697 C 381.410 114.249,379.458 115.354,378.062 116.151 C 376.665 116.948,375.360 117.600,375.162 117.600 C 374.963 117.600,374.800 117.759,374.800 117.953 C 374.800 118.148,374.485 118.408,374.100 118.531 C 373.715 118.655,372.410 119.335,371.200 120.043 C 369.990 120.750,368.280 121.728,367.400 122.215 C 366.520 122.702,364.630 123.775,363.200 124.599 C 361.770 125.424,359.790 126.556,358.800 127.115 C 356.165 128.603,354.899 129.329,352.000 131.011 C 350.570 131.841,348.680 132.921,347.800 133.410 C 346.920 133.900,345.058 134.953,343.662 135.750 C 342.265 136.548,340.960 137.200,340.762 137.200 C 340.563 137.200,340.400 137.359,340.400 137.553 C 340.400 137.748,340.085 138.008,339.700 138.131 C 339.315 138.255,338.100 138.883,337.000 139.527 C 331.082 142.994,329.688 143.785,328.533 144.334 C 327.836 144.666,327.066 145.401,326.822 145.968 C 326.381 146.993,326.383 146.995,327.089 146.161 C 327.480 145.700,329.420 144.425,331.400 143.328 C 334.627 141.541,336.084 140.722,340.200 138.387 C 340.860 138.013,345.270 135.494,350.000 132.791 C 354.730 130.087,359.140 127.566,359.800 127.189 C 363.950 124.817,369.981 121.376,371.000 120.800 C 371.660 120.427,374.180 118.991,376.600 117.609 C 379.020 116.228,381.630 114.740,382.400 114.304 C 383.170 113.867,384.970 112.829,386.400 111.997 C 390.628 109.538,393.341 108.001,394.300 107.522 C 395.446 106.948,395.431 106.667,394.182 105.418 C 393.036 104.272,392.794 104.181,392.813 104.900 M0.400 114.600 C 0.400 114.930,0.580 115.200,0.800 115.200 C 1.020 115.200,1.200 114.930,1.200 114.600 C 1.200 114.270,1.020 114.000,0.800 114.000 C 0.580 114.000,0.400 114.270,0.400 114.600 M0.006 118.276 C 0.011 119.666,0.120 120.033,0.400 119.600 C 0.909 118.813,0.909 116.914,0.400 116.600 C 0.154 116.448,0.002 117.094,0.006 118.276 M293.500 165.227 C 292.675 165.663,292.000 166.108,292.000 166.218 C 292.000 166.327,292.720 166.049,293.600 165.600 C 294.480 165.151,295.200 164.697,295.200 164.592 C 295.200 164.330,295.197 164.331,293.500 165.227 M260.200 183.357 C 257.030 185.185,249.762 189.324,248.000 190.305 C 247.010 190.856,246.020 191.446,245.800 191.615 C 245.580 191.784,244.590 192.360,243.600 192.894 C 242.610 193.428,241.170 194.226,240.400 194.667 C 239.630 195.108,238.190 195.926,237.200 196.485 C 236.210 197.044,234.230 198.176,232.800 199.000 C 230.364 200.404,228.234 201.615,225.400 203.205 C 223.663 204.180,215.805 208.683,213.000 210.311 C 211.680 211.077,209.610 212.242,208.400 212.901 C 207.190 213.559,205.750 214.382,205.200 214.728 C 204.650 215.075,202.310 216.424,200.000 217.725 C 193.122 221.601,191.460 222.546,187.200 225.000 C 184.399 226.613,183.496 227.131,179.076 229.656 C 174.629 232.197,173.931 232.595,172.000 233.685 C 171.010 234.244,169.030 235.376,167.600 236.200 C 164.833 237.795,161.914 239.448,160.600 240.164 C 160.160 240.404,159.710 240.690,159.600 240.800 C 159.490 240.910,158.500 241.470,157.400 242.045 C 156.300 242.620,154.230 243.767,152.800 244.594 C 151.370 245.422,149.390 246.551,148.400 247.103 C 147.410 247.655,146.420 248.244,146.200 248.411 C 145.980 248.578,145.170 249.061,144.400 249.484 C 134.837 254.737,135.198 254.497,135.254 255.570 C 135.300 256.428,135.337 256.459,135.475 255.757 C 135.566 255.293,136.119 254.663,136.703 254.357 C 137.287 254.051,139.933 252.560,142.583 251.044 C 147.272 248.361,149.528 247.085,152.400 245.492 C 153.170 245.064,153.980 244.578,154.200 244.411 C 154.420 244.244,155.410 243.660,156.400 243.115 C 158.104 242.175,168.993 236.004,172.000 234.273 C 172.770 233.830,175.290 232.396,177.600 231.088 C 179.910 229.779,182.610 228.248,183.600 227.687 C 184.590 227.125,186.720 225.886,188.333 224.933 C 189.946 223.980,191.345 223.200,191.441 223.200 C 191.537 223.200,192.287 222.780,193.108 222.268 C 193.929 221.755,195.821 220.669,197.312 219.854 C 201.607 217.508,202.971 216.737,203.400 216.411 C 203.776 216.126,205.683 215.036,209.400 212.983 C 210.280 212.497,212.170 211.425,213.600 210.601 C 216.138 209.137,218.502 207.794,221.074 206.356 C 221.775 205.964,223.076 205.183,223.966 204.621 C 224.856 204.060,225.645 203.600,225.720 203.600 C 225.795 203.600,228.094 202.315,230.828 200.744 C 233.563 199.173,236.610 197.433,237.600 196.878 C 239.703 195.699,240.344 195.334,246.200 191.991 C 251.025 189.236,252.030 188.669,255.000 187.024 C 256.100 186.415,257.180 185.779,257.400 185.611 C 258.252 184.961,262.240 182.883,263.000 182.693 C 263.657 182.529,263.621 182.488,262.800 182.463 C 262.250 182.447,261.080 182.849,260.200 183.357 M138.749 261.800 C 138.965 262.240,139.434 262.960,139.793 263.400 L 140.444 264.200 140.051 263.400 C 139.835 262.960,139.366 262.240,139.007 261.800 L 138.356 261.000 138.749 261.800 M260.953 261.700 C 259.576 264.036,259.486 264.235,260.187 263.400 C 261.000 262.432,261.700 261.200,261.438 261.200 C 261.333 261.200,261.115 261.425,260.953 261.700 M276.800 265.384 C 276.800 265.494,277.520 265.951,278.400 266.400 C 279.280 266.849,280.000 267.126,280.000 267.016 C 280.000 266.906,279.280 266.449,278.400 266.000 C 277.520 265.551,276.800 265.274,276.800 265.384 M144.400 269.325 C 144.400 269.394,144.985 269.979,145.700 270.625 L 147.000 271.800 145.825 270.500 C 144.730 269.288,144.400 269.016,144.400 269.325 M254.175 270.500 L 253.000 271.800 254.300 270.625 C 255.015 269.979,255.600 269.394,255.600 269.325 C 255.600 269.016,255.270 269.288,254.175 270.500 M159.800 282.607 C 160.240 282.966,160.960 283.435,161.400 283.651 L 162.200 284.044 161.400 283.393 C 160.960 283.034,160.240 282.565,159.800 282.349 L 159.000 281.956 159.800 282.607 M313.200 285.379 C 313.200 285.489,313.740 285.859,314.400 286.200 C 315.060 286.541,315.600 286.731,315.600 286.621 C 315.600 286.511,315.060 286.141,314.400 285.800 C 313.740 285.459,313.200 285.269,313.200 285.379 M179.633 291.744 C 179.725 291.823,180.340 292.008,181.000 292.156 C 181.876 292.352,182.038 292.315,181.600 292.018 C 181.060 291.653,179.232 291.398,179.633 291.744 M218.400 292.018 C 217.962 292.315,218.124 292.352,219.000 292.156 C 220.471 291.827,220.790 291.598,219.767 291.606 C 219.345 291.609,218.730 291.795,218.400 292.018 M68.610 292.620 C 67.956 292.964,66.786 293.640,66.010 294.122 C 63.588 295.627,61.428 296.823,60.700 297.063 C 60.315 297.190,60.000 297.452,60.000 297.647 C 60.000 297.841,59.842 298.000,59.649 298.000 C 59.325 298.000,53.288 301.316,48.600 304.069 C 47.500 304.715,46.285 305.345,45.900 305.469 C 45.515 305.592,45.200 305.852,45.200 306.047 C 45.200 306.241,45.037 306.400,44.838 306.400 C 44.640 306.400,43.335 307.052,41.938 307.849 C 40.542 308.646,38.590 309.751,37.600 310.303 C 36.610 310.855,35.620 311.446,35.400 311.615 C 35.180 311.784,34.190 312.360,33.200 312.895 C 30.235 314.496,23.468 318.353,17.800 321.673 C 16.700 322.317,15.485 322.945,15.100 323.069 C 14.715 323.192,14.400 323.452,14.400 323.647 C 14.400 323.841,14.219 324.000,13.997 324.000 C 13.647 324.000,6.968 327.673,4.532 329.206 C 3.570 329.812,2.400 329.233,2.400 328.151 C 2.400 327.848,2.220 327.600,2.000 327.600 C 1.780 327.600,1.600 327.251,1.600 326.824 C 1.600 326.397,1.420 325.936,1.200 325.800 C 0.980 325.664,0.797 324.708,0.794 323.676 C 0.791 322.644,0.601 321.530,0.372 321.200 C 0.074 320.769,0.002 321.440,0.117 323.580 C 0.212 325.343,0.465 326.622,0.739 326.713 C 0.992 326.797,1.200 327.212,1.200 327.633 C 1.200 328.055,1.350 328.400,1.532 328.400 C 1.715 328.400,2.106 328.850,2.400 329.400 C 3.110 330.727,2.104 331.164,14.021 324.361 C 19.839 321.040,25.320 317.913,26.200 317.413 C 27.080 316.913,29.780 315.373,32.200 313.991 C 34.620 312.609,37.140 311.173,37.800 310.800 C 38.460 310.427,40.980 308.991,43.400 307.609 C 49.725 303.998,49.994 303.846,52.200 302.624 C 53.300 302.015,54.380 301.379,54.600 301.211 C 54.820 301.043,56.080 300.313,57.400 299.588 C 58.720 298.863,60.340 297.961,61.000 297.585 C 71.549 291.570,70.425 292.033,71.383 293.300 C 72.061 294.197,72.062 294.196,71.484 293.200 C 70.761 291.952,70.124 291.824,68.610 292.620 M193.300 294.276 C 193.685 294.376,194.315 294.376,194.700 294.276 C 195.085 294.175,194.770 294.093,194.000 294.093 C 193.230 294.093,192.915 294.175,193.300 294.276 M205.300 294.276 C 205.685 294.376,206.315 294.376,206.700 294.276 C 207.085 294.175,206.770 294.093,206.000 294.093 C 205.230 294.093,204.915 294.175,205.300 294.276 M198.700 294.689 C 199.415 294.778,200.585 294.778,201.300 294.689 C 202.015 294.601,201.430 294.528,200.000 294.528 C 198.570 294.528,197.985 294.601,198.700 294.689 M77.560 303.400 C 78.234 304.705,78.788 305.428,78.785 305.000 C 78.783 304.780,78.414 304.150,77.964 303.600 C 77.421 302.936,77.285 302.869,77.560 303.400 M321.814 303.835 C 321.441 304.404,321.205 304.938,321.289 305.022 C 321.373 305.107,321.758 304.641,322.144 303.988 C 323.006 302.528,322.748 302.409,321.814 303.835 M309.978 319.100 L 308.600 320.600 310.100 319.222 C 311.496 317.938,311.784 317.600,311.478 317.600 C 311.412 317.600,310.737 318.275,309.978 319.100 M95.200 325.000 C 96.395 326.210,97.463 327.200,97.573 327.200 C 97.683 327.200,96.795 326.210,95.600 325.000 C 94.405 323.790,93.337 322.800,93.227 322.800 C 93.117 322.800,94.005 323.790,95.200 325.000 M303.988 325.500 L 301.400 328.200 304.100 325.612 C 305.585 324.188,306.800 322.973,306.800 322.912 C 306.800 322.617,306.393 322.992,303.988 325.500 M101.200 330.600 C 101.946 331.370,102.647 332.000,102.757 332.000 C 102.867 332.000,102.346 331.370,101.600 330.600 C 100.854 329.830,100.153 329.200,100.043 329.200 C 99.933 329.200,100.454 329.830,101.200 330.600 M298.378 330.700 L 297.000 332.200 298.500 330.822 C 299.896 329.538,300.184 329.200,299.878 329.200 C 299.812 329.200,299.137 329.875,298.378 330.700 M103.600 332.525 C 103.600 332.594,104.185 333.179,104.900 333.825 L 106.200 335.000 105.025 333.700 C 103.930 332.488,103.600 332.216,103.600 332.525 M163.200 363.994 C 163.530 364.211,164.235 364.391,164.767 364.394 C 166.051 364.402,165.725 364.175,164.000 363.858 C 163.015 363.677,162.778 363.718,163.200 363.994 M235.600 364.000 C 234.776 364.264,234.741 364.326,235.400 364.354 C 235.840 364.373,236.470 364.213,236.800 364.000 C 237.501 363.547,237.014 363.547,235.600 364.000 M172.600 366.000 C 173.040 366.189,173.760 366.338,174.200 366.332 C 174.843 366.323,174.804 366.257,174.000 366.000 C 172.632 365.562,171.581 365.562,172.600 366.000 M226.400 366.000 C 225.596 366.257,225.557 366.323,226.200 366.332 C 226.640 366.338,227.360 366.189,227.800 366.000 C 228.819 365.562,227.768 365.562,226.400 366.000 M178.305 367.083 C 178.802 367.179,179.522 367.175,179.905 367.075 C 180.287 366.975,179.880 366.896,179.000 366.901 C 178.120 366.905,177.807 366.987,178.305 367.083 M220.305 367.083 C 220.802 367.179,221.522 367.175,221.905 367.075 C 222.287 366.975,221.880 366.896,221.000 366.901 C 220.120 366.905,219.807 366.987,220.305 367.083 M185.500 367.882 C 185.995 367.978,186.805 367.978,187.300 367.882 C 187.795 367.787,187.390 367.709,186.400 367.709 C 185.410 367.709,185.005 367.787,185.500 367.882 M212.700 367.882 C 213.195 367.978,214.005 367.978,214.500 367.882 C 214.995 367.787,214.590 367.709,213.600 367.709 C 212.610 367.709,212.205 367.787,212.700 367.882 M189.505 368.283 C 190.002 368.379,190.722 368.375,191.105 368.275 C 191.487 368.175,191.080 368.096,190.200 368.101 C 189.320 368.105,189.007 368.187,189.505 368.283 M209.105 368.283 C 209.602 368.379,210.322 368.375,210.705 368.275 C 211.087 368.175,210.680 368.096,209.800 368.101 C 208.920 368.105,208.607 368.187,209.105 368.283 " stroke="none" fill="#528dc5" fill-rule="evenodd"></path></g></svg>