<?xml version="1.0" standalone="no"?>
<!DOCTYPE svg PUBLIC "-//W3C//DTD SVG 20010904//EN"
 "http://www.w3.org/TR/2001/REC-SVG-20010904/DTD/svg10.dtd">
<svg version="1.0" xmlns="http://www.w3.org/2000/svg"
 width="300.000000pt" height="313.000000pt" viewBox="0 0 300.000000 313.000000"
 preserveAspectRatio="xMidYMid meet">
<metadata>
Created by potrace 1.10, written by Peter Selinger 2001-2011
</metadata>
<g transform="translate(0.000000,313.000000) scale(0.100000,-0.100000)"
fill="#000000" stroke="none">
<path d="M664 3116 c-92 -18 -135 -32 -209 -69 -206 -103 -346 -269 -407 -484
-29 -101 -31 -276 -4 -373 58 -213 213 -400 412 -496 87 -42 209 -74 281 -74
l53 0 0 375 0 375 388 2 387 3 -3 55 c-11 184 -119 391 -271 517 -78 64 -219
136 -311 157 -96 23 -233 28 -316 12z"/>
<path d="M1420 3100 c0 -9 705 -1321 765 -1423 l22 -37 391 724 c216 398 392
729 392 735 0 8 -222 11 -785 11 -533 0 -785 -3 -785 -10z"/>
<path d="M2021 1490 c-153 -37 -306 -133 -412 -257 -181 -214 -225 -524 -109
-779 84 -186 249 -336 446 -407 76 -27 224 -53 249 -43 13 5 15 55 15 381 l0
375 386 0 385 0 -6 58 c-23 204 -123 392 -277 519 -69 58 -234 137 -325 157
-96 21 -257 20 -352 -4z"/>
<path d="M28 1438 c17 -29 193 -354 392 -723 199 -369 365 -674 369 -678 7 -7
791 1428 791 1446 0 4 -356 7 -791 7 l-790 0 29 -52z"/>
</g>
</svg>
